<?xml version="1.0" standalone="no"?>
<!DOCTYPE svg PUBLIC "-//W3C//DTD SVG 20010904//EN"
 "http://www.w3.org/TR/2001/REC-SVG-20010904/DTD/svg10.dtd">
<svg version="1.0" xmlns="http://www.w3.org/2000/svg"
 width="445.000000pt" height="294.000000pt" viewBox="0 0 445.000000 294.000000"
 preserveAspectRatio="xMidYMid meet">
<metadata>
Created by potrace 1.16, written by Peter Selinger 2001-2019
</metadata>
<g transform="translate(0.000000,294.000000) scale(0.100000,-0.100000)"
fill="#000000" stroke="none">
<path d="M1725 2798 c-77 -42 -49 -159 37 -158 37 1 59 14 76 47 19 35 14 63
-17 94 -31 30 -62 36 -96 17z"/>
<path d="M766 2659 c-41 -32 -34 -99 8 -83 19 7 21 41 4 47 -10 3 -10 7 1 20
30 37 81 8 81 -44 0 -40 -13 -63 -72 -127 -26 -30 -48 -58 -48 -63 0 -5 35 -9
79 -9 l79 0 6 31 c8 42 8 49 -4 49 -5 0 -10 -9 -10 -20 0 -17 -7 -20 -51 -20
l-50 0 60 58 c54 51 61 62 61 95 0 76 -83 114 -144 66z"/>
<path d="M2690 2665 c0 -7 -3 -27 -6 -44 -7 -34 10 -44 19 -11 4 17 14 20 62
20 l57 0 -27 -36 c-35 -46 -65 -124 -65 -169 0 -28 4 -35 20 -35 22 0 27 14
33 97 3 40 13 67 45 115 23 35 38 64 34 65 -4 1 -44 3 -89 6 -61 3 -83 0 -83
-8z"/>
<path d="M1140 2314 c-195 -124 -359 -230 -364 -235 -7 -6 -7 -12 0 -18 10
-11 740 449 737 464 -1 5 -5 11 -10 12 -4 1 -168 -99 -363 -223z"/>
<path d="M2070 2528 c1 -13 721 -474 736 -471 5 1 10 6 12 11 3 9 -720 472
-738 472 -5 0 -10 -6 -10 -12z"/>
<path d="M415 1968 c-77 -42 -49 -159 37 -158 37 1 59 14 76 47 19 35 14 63
-17 94 -31 30 -62 36 -96 17z"/>
<path d="M3025 1968 c-77 -42 -49 -159 37 -158 37 1 59 14 76 47 19 35 14 63
-17 94 -31 30 -62 36 -96 17z"/>
<path d="M2246 1769 c-41 -32 -34 -99 8 -83 19 7 21 41 4 47 -10 3 -10 7 1 20
30 37 81 8 81 -44 0 -40 -13 -63 -72 -127 -26 -30 -48 -58 -48 -63 0 -5 35 -9
79 -9 l79 0 6 31 c8 42 8 49 -4 49 -5 0 -10 -9 -10 -20 0 -17 -7 -20 -51 -20
l-50 0 60 58 c54 51 61 62 61 95 0 76 -83 114 -144 66z"/>
<path d="M3820 1713 c0 -73 7 -86 30 -58 32 39 73 6 73 -60 0 -24 -5 -51 -13
-59 -14 -18 -47 -21 -70 -6 -13 8 -13 13 -2 30 15 25 8 40 -19 40 -14 0 -19
-7 -19 -30 0 -42 31 -70 79 -70 50 0 91 43 91 97 0 52 -48 98 -95 90 -33 -5
-35 -4 -35 24 0 27 3 29 38 29 33 0 72 22 72 41 0 2 -29 4 -65 4 l-65 0 0 -72z"/>
<path d="M2653 1484 c-101 -97 -183 -180 -183 -185 0 -26 41 7 205 165 123
119 177 177 170 184 -7 8 -68 -44 -192 -164z"/>
<path d="M3337 1648 c-5 -14 344 -351 369 -356 8 -2 14 1 14 6 0 10 -363 362
-373 362 -3 0 -7 -6 -10 -12z"/>
<path d="M480 1470 c0 -153 2 -180 15 -180 13 0 15 27 15 180 0 153 -2 180
-15 180 -13 0 -15 -27 -15 -180z"/>
<path d="M185 1485 c-29 -28 -31 -38 -10 -55 20 -17 37 -3 33 28 -3 23 1 27
24 30 57 7 57 -83 0 -105 -23 -9 -24 -11 -6 -12 34 -2 56 -34 52 -77 -4 -43
-24 -60 -62 -50 -23 6 -26 9 -16 21 18 21 4 47 -22 43 -61 -8 -7 -88 60 -88
57 0 92 31 92 80 0 29 -6 43 -24 57 -23 19 -23 19 -5 42 11 13 19 36 19 52 0
58 -89 81 -135 34z"/>
<path d="M415 1148 c-77 -42 -49 -159 37 -158 37 1 59 14 76 47 19 35 14 63
-17 94 -31 30 -62 36 -96 17z"/>
<path d="M2155 1148 c-77 -42 -49 -159 37 -158 37 1 59 14 76 47 19 35 14 63
-17 94 -31 30 -62 36 -96 17z"/>
<path d="M3885 1148 c-77 -42 -49 -159 37 -158 37 1 59 14 76 47 19 35 14 63
-17 94 -31 30 -62 36 -96 17z"/>
<path d="M480 640 c0 -153 2 -180 15 -180 13 0 15 27 15 180 0 153 -2 180 -15
180 -13 0 -15 -27 -15 -180z"/>
<path d="M3950 640 c0 -113 4 -180 10 -180 6 0 10 67 10 180 0 113 -4 180 -10
180 -6 0 -10 -67 -10 -180z"/>
<path d="M180 613 c0 -73 7 -86 30 -58 16 19 44 19 60 -1 17 -20 17 -98 0
-118 -14 -18 -47 -21 -70 -6 -13 8 -13 13 -2 30 15 25 8 40 -19 40 -14 0 -19
-7 -19 -30 0 -42 31 -70 79 -70 50 0 91 43 91 97 0 52 -48 98 -95 90 -33 -5
-35 -4 -35 24 0 27 3 29 38 29 33 0 72 22 72 41 0 2 -29 4 -65 4 l-65 0 0 -72z"/>
<path d="M4155 665 c-29 -28 -31 -38 -10 -55 20 -17 37 -3 33 28 -3 23 1 27
24 30 57 7 57 -83 0 -105 -23 -9 -24 -11 -6 -12 34 -2 56 -34 52 -77 -4 -43
-24 -60 -62 -50 -23 6 -26 9 -16 21 18 21 4 47 -22 43 -61 -8 -7 -88 60 -88
57 0 92 31 92 80 0 29 -6 43 -24 57 -23 19 -23 19 -5 42 11 13 19 36 19 52 0
58 -89 81 -135 34z"/>
<path d="M415 318 c-77 -42 -49 -159 37 -158 37 1 59 14 76 47 19 35 14 63
-17 94 -31 30 -62 36 -96 17z"/>
<path d="M3885 318 c-77 -42 -49 -159 37 -158 37 1 59 14 76 47 19 35 14 63
-17 94 -31 30 -62 36 -96 17z"/>
</g>
</svg>
