<?xml version="1.0" standalone="no"?>
<!DOCTYPE svg PUBLIC "-//W3C//DTD SVG 20010904//EN"
 "http://www.w3.org/TR/2001/REC-SVG-20010904/DTD/svg10.dtd">
<svg version="1.0" xmlns="http://www.w3.org/2000/svg"
 width="2067.000000pt" height="583.000000pt" viewBox="0 0 2067.000000 583.000000"
 preserveAspectRatio="xMidYMid meet">
<metadata>
Created by potrace 1.16, written by Peter Selinger 2001-2019
</metadata>
<g transform="translate(0.000000,583.000000) scale(0.100000,-0.100000)"
fill="#000000" stroke="none">
<path d="M10245 5688 c-76 -44 -49 -159 37 -158 37 1 59 14 76 47 19 35 14 63
-17 94 -31 30 -63 36 -96 17z"/>
<path d="M6731 4726 c-1891 -473 -3286 -827 -3289 -834 -2 -7 3 -12 12 -12 41
0 6586 1644 6583 1653 -2 6 -7 12 -13 13 -5 1 -1487 -368 -3293 -820z"/>
<path d="M10527 5537 c-2 -8 929 -246 3277 -834 1805 -453 3289 -823 3299
-823 10 0 17 5 15 12 -3 7 -1390 358 -3269 828 -1795 449 -3276 819 -3291 823
-17 5 -28 3 -31 -6z"/>
<path d="M10270 4710 c0 -427 3 -650 10 -650 7 0 10 223 10 650 0 427 -3 650
-10 650 -7 0 -10 -223 -10 -650z"/>
<path d="M3155 3908 c-76 -44 -49 -159 37 -158 37 1 59 14 76 47 19 35 14 63
-17 94 -31 30 -63 36 -96 17z"/>
<path d="M10245 3908 c-76 -44 -49 -159 37 -158 37 1 59 14 76 47 19 35 14 63
-17 94 -31 30 -63 36 -96 17z"/>
<path d="M17325 3908 c-76 -44 -49 -159 37 -158 37 1 59 14 76 47 19 35 14 63
-17 94 -31 30 -63 36 -96 17z"/>
<path d="M2004 2954 c-511 -383 -931 -699 -933 -701 -3 -2 1 -9 7 -15 9 -9
239 160 939 686 510 384 929 704 931 712 2 8 -1 14 -6 14 -5 0 -427 -313 -938
-696z"/>
<path d="M3440 3637 c0 -8 419 -329 930 -712 696 -522 934 -695 942 -687 7 7
10 13 7 15 -33 29 -1855 1390 -1865 1394 -8 3 -14 -1 -14 -10z"/>
<path d="M9090 2954 c-509 -383 -925 -701 -925 -707 0 -7 5 -12 11 -12 18 0
1863 1389 1863 1403 1 6 -5 12 -11 11 -7 0 -429 -313 -938 -695z"/>
<path d="M10525 3639 c-4 -6 -5 -12 -4 -13 46 -38 1855 -1389 1865 -1393 75
-29 -117 123 -914 721 -511 383 -931 696 -935 696 -3 0 -9 -5 -12 -11z"/>
<path d="M16180 2955 c-509 -381 -926 -701 -928 -709 -2 -9 1 -16 6 -16 15 0
1866 1394 1865 1405 -1 5 -5 11 -10 12 -4 1 -424 -310 -933 -692z"/>
<path d="M17612 3636 c2 -8 421 -328 932 -711 668 -502 931 -694 939 -686 7 7
7 14 1 20 -37 34 -1856 1391 -1865 1391 -6 0 -9 -7 -7 -14z"/>
<path d="M3180 2940 c0 -571 2 -650 15 -650 13 0 15 79 15 650 0 571 -2 650
-15 650 -13 0 -15 -79 -15 -650z"/>
<path d="M10270 2940 c0 -427 3 -650 10 -650 7 0 10 223 10 650 0 427 -3 650
-10 650 -7 0 -10 -223 -10 -650z"/>
<path d="M17350 2940 c0 -571 2 -650 15 -650 13 0 15 79 15 650 0 571 -2 650
-15 650 -13 0 -15 -79 -15 -650z"/>
<path d="M795 2138 c-76 -44 -49 -159 37 -158 37 1 59 14 76 47 19 35 14 63
-17 94 -31 30 -63 36 -96 17z"/>
<path d="M3155 2138 c-76 -44 -49 -159 37 -158 37 1 59 14 76 47 19 35 14 63
-17 94 -31 30 -63 36 -96 17z"/>
<path d="M5515 2138 c-76 -44 -49 -159 37 -158 37 1 59 14 76 47 19 35 14 63
-17 94 -31 30 -63 36 -96 17z"/>
<path d="M7885 2138 c-76 -44 -49 -159 37 -158 37 1 59 14 76 47 19 35 14 63
-17 94 -31 30 -63 36 -96 17z"/>
<path d="M10245 2138 c-76 -44 -49 -159 37 -158 37 1 59 14 76 47 19 35 14 63
-17 94 -31 30 -63 36 -96 17z"/>
<path d="M12605 2138 c-76 -44 -49 -159 37 -158 37 1 59 14 76 47 19 35 14 63
-17 94 -31 30 -63 36 -96 17z"/>
<path d="M14965 2138 c-76 -44 -49 -159 37 -158 37 1 59 14 76 47 19 35 14 63
-17 94 -31 30 -63 36 -96 17z"/>
<path d="M17325 2138 c-76 -44 -49 -159 37 -158 37 1 59 14 76 47 19 35 14 63
-17 94 -31 30 -63 36 -96 17z"/>
<path d="M19695 2138 c-76 -44 -49 -159 37 -158 37 1 59 14 76 47 19 35 14 63
-17 94 -31 30 -63 36 -96 17z"/>
<path d="M735 1808 c-27 -70 -405 -1216 -405 -1226 0 -60 51 77 231 616 152
455 203 622 193 622 -8 0 -17 -6 -19 -12z"/>
<path d="M820 1190 c0 -553 2 -630 15 -630 13 0 15 77 15 630 0 553 -2 630
-15 630 -13 0 -15 -77 -15 -630z"/>
<path d="M900 1813 c0 -4 93 -288 207 -630 128 -383 213 -623 220 -623 7 0 13
3 13 7 0 4 -93 288 -207 630 -128 383 -213 623 -220 623 -7 0 -13 -3 -13 -7z"/>
<path d="M2896 1202 c-113 -339 -206 -620 -206 -625 0 -4 6 -7 13 -7 7 0 91
236 216 613 112 336 206 618 209 625 2 6 -3 12 -11 12 -11 0 -69 -161 -221
-618z"/>
<path d="M3180 1195 c0 -549 2 -625 15 -625 13 0 15 76 15 625 0 549 -2 625
-15 625 -13 0 -15 -76 -15 -625z"/>
<path d="M3264 1803 c3 -10 97 -292 209 -627 176 -528 227 -664 227 -604 0 7
-93 291 -206 630 -149 447 -210 618 -221 618 -9 0 -12 -6 -9 -17z"/>
<path d="M5257 1202 c-114 -339 -207 -620 -207 -624 0 -5 6 -8 14 -8 10 0 77
188 220 618 113 339 206 620 206 625 0 4 -6 7 -12 7 -8 0 -95 -243 -221 -618z"/>
<path d="M5540 1195 c0 -549 2 -625 15 -625 13 0 15 76 15 625 0 549 -2 625
-15 625 -13 0 -15 -76 -15 -625z"/>
<path d="M5622 1809 c3 -8 97 -290 209 -627 125 -376 209 -612 216 -612 7 0
13 6 13 13 0 6 -92 287 -203 622 -162 485 -207 611 -222 614 -12 2 -16 -2 -13
-10z"/>
<path d="M7621 1208 c-112 -337 -206 -619 -209 -625 -2 -7 3 -13 11 -13 11 0
69 161 221 618 113 339 206 620 206 625 0 4 -6 7 -13 7 -7 0 -91 -236 -216
-612z"/>
<path d="M7910 1195 c0 -410 3 -625 10 -625 7 0 10 215 10 625 0 410 -3 625
-10 625 -7 0 -10 -215 -10 -625z"/>
<path d="M7990 1808 c0 -7 92 -288 203 -623 148 -444 208 -611 220 -613 12 -2
-35 149 -192 619 -180 540 -231 677 -231 617z"/>
<path d="M10185 1808 c-41 -108 -411 -1238 -407 -1242 3 -3 9 -6 13 -6 7 0
419 1225 419 1248 0 16 -19 16 -25 0z"/>
<path d="M10270 1195 c0 -410 3 -625 10 -625 7 0 10 215 10 625 0 410 -3 625
-10 625 -7 0 -10 -215 -10 -625z"/>
<path d="M10350 1813 c0 -10 411 -1247 417 -1252 2 -3 8 0 13 5 13 13 -400
1254 -417 1254 -7 0 -13 -3 -13 -7z"/>
<path d="M12346 1202 c-113 -339 -206 -623 -206 -630 0 -60 51 76 227 604 112
335 206 617 209 627 3 11 0 17 -9 17 -11 0 -72 -171 -221 -618z"/>
<path d="M12630 1190 c0 -553 2 -630 15 -630 13 0 15 77 15 630 0 553 -2 630
-15 630 -13 0 -15 -77 -15 -630z"/>
<path d="M12710 1813 c0 -5 93 -286 206 -625 143 -430 210 -618 220 -618 8 0
14 3 14 7 0 5 -93 286 -206 625 -143 430 -210 618 -220 618 -8 0 -14 -3 -14
-7z"/>
<path d="M14706 1202 c-113 -339 -206 -620 -206 -625 0 -4 6 -7 13 -7 7 0 91
236 216 613 112 336 206 618 209 625 2 6 -3 12 -11 12 -11 0 -69 -161 -221
-618z"/>
<path d="M14990 1195 c0 -549 2 -625 15 -625 13 0 15 76 15 625 0 549 -2 625
-15 625 -13 0 -15 -76 -15 -625z"/>
<path d="M15072 1808 c3 -7 97 -289 209 -626 125 -376 209 -612 216 -612 7 0
13 3 13 7 0 5 -93 286 -206 625 -152 457 -210 618 -221 618 -8 0 -13 -6 -11
-12z"/>
<path d="M17071 1208 c-112 -337 -206 -619 -209 -625 -2 -7 3 -13 11 -13 11 0
69 161 221 618 113 339 206 620 206 625 0 4 -6 7 -13 7 -7 0 -91 -236 -216
-612z"/>
<path d="M17350 1195 c0 -549 2 -625 15 -625 13 0 15 76 15 625 0 549 -2 625
-15 625 -13 0 -15 -76 -15 -625z"/>
<path d="M17639 1199 c180 -540 231 -677 231 -617 0 7 -92 288 -203 623 -148
444 -208 611 -220 613 -12 2 35 -149 192 -619z"/>
<path d="M19635 1808 c-41 -108 -411 -1238 -407 -1242 3 -3 9 -6 13 -6 7 0
419 1225 419 1248 0 16 -19 16 -25 0z"/>
<path d="M19720 1195 c0 -410 3 -625 10 -625 7 0 10 215 10 625 0 410 -3 625
-10 625 -7 0 -10 -215 -10 -625z"/>
<path d="M19800 1806 c0 -8 92 -288 205 -622 113 -334 205 -609 205 -611 0 -1
7 -3 16 -3 9 0 14 6 12 13 -3 6 -97 288 -209 625 -125 376 -209 612 -216 612
-7 0 -13 -6 -13 -14z"/>
<path d="M191 411 c-54 -54 -53 -218 2 -256 22 -16 63 -20 92 -9 30 12 45 60
45 144 0 77 -2 83 -29 111 -35 34 -81 39 -110 10z m89 -20 c5 -11 10 -60 10
-110 0 -79 -3 -94 -21 -112 -18 -18 -23 -19 -42 -6 -36 24 -47 172 -16 229 13
24 55 23 69 -1z"/>
<path d="M2553 415 c-26 -19 -47 -77 -38 -107 18 -58 89 -89 124 -55 11 10 12
7 7 -18 -11 -46 -34 -75 -60 -75 -17 0 -22 5 -22 23 1 26 -37 32 -42 6 -9 -45
74 -65 120 -29 38 30 51 71 46 151 -3 63 -7 74 -31 95 -32 27 -73 31 -104 9z
m76 -18 c30 -37 20 -128 -16 -142 -28 -10 -53 24 -53 72 0 24 5 53 10 64 12
22 43 25 59 6z"/>
<path d="M3085 421 c-3 -5 -19 -12 -35 -16 -40 -9 -40 -29 0 -21 l30 6 0 -110
0 -110 -25 0 c-14 0 -25 -4 -25 -10 0 -6 30 -10 70 -10 40 0 70 4 70 10 0 6
-11 10 -25 10 l-25 0 0 130 c0 107 -3 130 -14 130 -8 0 -17 -4 -21 -9z"/>
<path d="M3241 411 c-54 -54 -53 -218 2 -256 22 -16 63 -20 92 -9 30 12 45 60
45 144 0 77 -2 83 -29 111 -35 34 -81 39 -110 10z m89 -20 c5 -11 10 -60 10
-110 0 -79 -3 -94 -21 -112 -18 -18 -23 -19 -42 -6 -36 24 -47 172 -16 229 13
24 55 23 69 -1z"/>
<path d="M4855 421 c-3 -5 -19 -12 -35 -16 -40 -9 -40 -29 0 -21 l30 6 0 -110
0 -110 -25 0 c-14 0 -25 -4 -25 -10 0 -6 30 -10 70 -10 40 0 70 4 70 10 0 6
-11 10 -25 10 l-25 0 0 130 c0 107 -3 130 -14 130 -8 0 -17 -4 -21 -9z"/>
<path d="M5021 412 c-28 -22 -31 -75 -5 -103 17 -19 17 -22 3 -32 -67 -50 -33
-137 52 -137 79 0 119 82 67 137 -20 21 -20 24 -5 41 25 27 22 78 -5 96 -30
21 -81 20 -107 -2z m93 -23 c18 -26 3 -69 -24 -69 -23 0 -70 38 -70 55 0 36
71 46 94 14z m13 -166 c34 -50 -67 -90 -101 -41 -21 29 -20 40 5 72 l21 27 32
-20 c17 -11 37 -28 43 -38z"/>
<path d="M5445 421 c-3 -5 -19 -12 -35 -16 -40 -9 -40 -29 0 -21 l30 6 0 -110
0 -110 -25 0 c-14 0 -25 -4 -25 -10 0 -6 30 -10 70 -10 40 0 70 4 70 10 0 6
-11 10 -25 10 l-25 0 0 130 c0 107 -3 130 -14 130 -8 0 -17 -4 -21 -9z"/>
<path d="M5613 415 c-26 -19 -47 -77 -38 -107 18 -58 89 -89 124 -55 11 10 12
7 7 -18 -11 -46 -34 -75 -60 -75 -17 0 -22 5 -22 23 1 26 -37 32 -42 6 -9 -45
74 -65 120 -29 38 30 51 71 46 151 -3 63 -7 74 -31 95 -32 27 -73 31 -104 9z
m76 -18 c30 -37 20 -128 -16 -142 -28 -10 -53 24 -53 72 0 24 5 53 10 64 12
22 43 25 59 6z"/>
<path d="M5988 410 c-42 -33 -37 -101 6 -84 19 7 21 41 4 47 -10 3 -10 7 1 20
30 37 81 8 81 -44 0 -40 -13 -63 -72 -127 -26 -30 -48 -58 -48 -63 0 -5 35 -9
79 -9 l79 0 6 31 c8 42 8 49 -4 49 -5 0 -10 -9 -10 -20 0 -17 -7 -20 -51 -20
l-50 0 60 58 c53 50 61 62 61 94 0 49 -26 78 -75 85 -31 4 -46 0 -67 -17z"/>
<path d="M6201 411 c-54 -54 -53 -218 2 -256 22 -16 63 -20 92 -9 30 12 45 60
45 144 0 77 -2 83 -29 111 -35 34 -81 39 -110 10z m89 -20 c5 -11 10 -60 10
-110 0 -79 -3 -94 -21 -112 -18 -18 -23 -19 -42 -6 -36 24 -47 172 -16 229 13
24 55 23 69 -1z"/>
<path d="M7265 405 c-29 -28 -31 -38 -10 -55 20 -17 37 -3 33 28 -3 23 1 27
24 30 18 2 30 -3 37 -16 16 -30 -5 -81 -35 -88 -24 -6 -24 -7 8 -23 30 -14 33
-20 33 -60 0 -51 -18 -68 -59 -57 -23 6 -26 9 -16 21 18 21 4 47 -22 43 -61
-8 -7 -88 60 -88 57 0 92 31 92 80 0 29 -6 43 -24 57 -23 19 -23 19 -5 42 11
13 19 36 19 52 0 58 -89 81 -135 34z"/>
<path d="M8450 353 c0 -73 7 -86 30 -58 32 39 73 6 73 -60 0 -24 -5 -51 -13
-59 -14 -18 -47 -21 -70 -6 -13 8 -13 13 -2 30 15 25 8 40 -19 40 -14 0 -19
-7 -19 -30 0 -42 31 -70 79 -70 50 0 91 43 91 97 0 52 -48 98 -95 90 -33 -5
-35 -4 -35 22 0 24 4 28 30 28 34 0 80 21 80 37 0 7 -25 11 -65 11 l-65 0 0
-72z"/>
<path d="M10165 421 c-3 -5 -19 -12 -35 -16 -40 -9 -40 -29 0 -21 l30 6 0
-110 0 -110 -25 0 c-14 0 -25 -4 -25 -10 0 -6 30 -10 70 -10 40 0 70 4 70 10
0 6 -11 10 -25 10 l-25 0 0 130 c0 107 -3 130 -14 130 -8 0 -17 -4 -21 -9z"/>
<path d="M10325 405 c-29 -28 -31 -38 -10 -55 20 -17 37 -3 33 28 -3 23 1 27
24 30 18 2 30 -3 37 -16 16 -30 -5 -81 -35 -88 -24 -6 -24 -7 8 -23 30 -14 33
-20 33 -60 0 -51 -18 -68 -59 -57 -23 6 -26 9 -16 21 18 21 4 47 -22 43 -61
-8 -7 -88 60 -88 57 0 92 31 92 80 0 29 -6 43 -24 57 -23 19 -23 19 -5 42 11
13 19 36 19 52 0 58 -89 81 -135 34z"/>
<path d="M13078 410 c-42 -33 -37 -101 6 -84 19 7 21 41 4 47 -10 3 -10 7 1
20 30 37 81 8 81 -44 0 -40 -13 -63 -72 -127 -26 -30 -48 -58 -48 -63 0 -5 35
-9 79 -9 l79 0 6 31 c8 42 8 49 -4 49 -5 0 -10 -9 -10 -20 0 -17 -7 -20 -51
-20 l-50 0 60 58 c53 50 61 62 61 94 0 49 -26 78 -75 85 -31 4 -46 0 -67 -17z"/>
<path d="M13275 405 c-29 -28 -31 -38 -10 -55 20 -17 37 -3 33 28 -3 23 1 27
24 30 18 2 30 -3 37 -16 16 -30 -5 -81 -35 -88 -24 -6 -24 -7 8 -23 30 -14 33
-20 33 -60 0 -51 -18 -68 -59 -57 -23 6 -26 9 -16 21 18 21 4 47 -22 43 -61
-8 -7 -88 60 -88 57 0 92 31 92 80 0 29 -6 43 -24 57 -23 19 -23 19 -5 42 11
13 19 36 19 52 0 58 -89 81 -135 34z"/>
<path d="M14370 402 c-50 -51 -61 -151 -24 -223 24 -47 90 -54 129 -14 55 54
19 165 -53 165 -15 0 -33 -5 -40 -12 -20 -20 -15 23 8 60 25 41 70 47 62 7 -3
-20 0 -25 17 -25 15 0 21 6 21 23 0 55 -73 66 -120 19z m80 -111 c5 -11 10
-36 10 -56 0 -49 -16 -75 -45 -75 -29 0 -45 26 -45 75 0 49 16 75 45 75 14 0
29 -8 35 -19z"/>
<path d="M14930 415 c0 -7 -3 -27 -6 -44 -7 -34 10 -44 19 -11 4 17 14 20 62
20 l56 0 -31 -45 c-37 -54 -60 -115 -60 -161 0 -27 4 -34 20 -34 22 0 27 14
33 97 3 40 13 67 45 115 23 35 38 64 34 65 -4 1 -44 3 -89 6 -61 3 -83 0 -83
-8z"/>
<path d="M15541 412 c-28 -22 -31 -75 -5 -103 17 -19 17 -22 3 -32 -67 -50
-33 -137 52 -137 79 0 119 82 67 137 -20 21 -20 24 -5 41 25 27 22 78 -5 96
-30 21 -81 20 -107 -2z m93 -23 c18 -26 3 -69 -24 -69 -23 0 -70 38 -70 55 0
36 71 46 94 14z m13 -166 c34 -50 -67 -90 -101 -41 -21 29 -20 40 5 72 l21 27
32 -20 c17 -11 37 -28 43 -38z"/>
<path d="M16665 421 c-3 -5 -19 -12 -35 -16 -40 -9 -40 -29 0 -21 l30 6 0
-110 0 -110 -25 0 c-14 0 -25 -4 -25 -10 0 -6 30 -10 70 -10 40 0 70 4 70 10
0 6 -11 10 -25 10 l-25 0 0 130 c0 107 -3 130 -14 130 -8 0 -17 -4 -21 -9z"/>
<path d="M16820 353 c0 -73 7 -86 30 -58 32 39 73 6 73 -60 0 -24 -5 -51 -13
-59 -14 -18 -47 -21 -70 -6 -13 8 -13 13 -2 30 15 25 8 40 -19 40 -14 0 -19
-7 -19 -30 0 -42 31 -70 79 -70 50 0 91 43 91 97 0 52 -48 98 -95 90 -33 -5
-35 -4 -35 22 0 24 4 28 30 28 34 0 80 21 80 37 0 7 -25 11 -65 11 l-65 0 0
-72z"/>
<path d="M17255 421 c-3 -5 -19 -12 -35 -16 -40 -9 -40 -29 0 -21 l30 6 0
-110 0 -110 -25 0 c-14 0 -25 -4 -25 -10 0 -6 30 -10 70 -10 40 0 70 4 70 10
0 6 -11 10 -25 10 l-25 0 0 130 c0 107 -3 130 -14 130 -8 0 -17 -4 -21 -9z"/>
<path d="M17430 402 c-50 -51 -61 -151 -24 -223 24 -47 90 -54 129 -14 55 54
19 165 -53 165 -15 0 -33 -5 -40 -12 -20 -20 -15 23 8 60 25 41 70 47 62 7 -3
-20 0 -25 17 -25 15 0 21 6 21 23 0 55 -73 66 -120 19z m80 -111 c5 -11 10
-36 10 -56 0 -49 -16 -75 -45 -75 -29 0 -45 26 -45 75 0 49 16 75 45 75 14 0
29 -8 35 -19z"/>
<path d="M17845 421 c-3 -5 -19 -12 -35 -16 -40 -9 -40 -29 0 -21 l30 6 0
-110 0 -110 -25 0 c-14 0 -25 -4 -25 -10 0 -6 30 -10 70 -10 40 0 70 4 70 10
0 6 -11 10 -25 10 l-25 0 0 130 c0 107 -3 130 -14 130 -8 0 -17 -4 -21 -9z"/>
<path d="M17990 415 c0 -7 -3 -27 -6 -44 -7 -34 10 -44 19 -11 4 17 14 20 62
20 l56 0 -31 -45 c-37 -54 -60 -115 -60 -161 0 -27 4 -34 20 -34 22 0 27 14
33 97 3 40 13 67 45 115 23 35 38 64 34 65 -4 1 -44 3 -89 6 -61 3 -83 0 -83
-8z"/>
<path d="M19568 410 c-42 -33 -37 -101 6 -84 19 7 21 41 4 47 -10 3 -10 7 1
20 30 37 81 8 81 -44 0 -40 -13 -63 -72 -127 -26 -30 -48 -58 -48 -63 0 -5 35
-9 79 -9 l79 0 6 31 c8 42 8 49 -4 49 -5 0 -10 -9 -10 -20 0 -17 -7 -20 -51
-20 l-50 0 60 58 c53 50 61 62 61 94 0 49 -26 78 -75 85 -31 4 -46 0 -67 -17z"/>
<path d="M19770 353 c0 -73 7 -86 30 -58 32 39 73 6 73 -60 0 -24 -5 -51 -13
-59 -14 -18 -47 -21 -70 -6 -13 8 -13 13 -2 30 15 25 8 40 -19 40 -14 0 -19
-7 -19 -30 0 -42 31 -70 79 -70 50 0 91 43 91 97 0 52 -48 98 -95 90 -33 -5
-35 -4 -35 22 0 24 4 28 30 28 34 0 80 21 80 37 0 7 -25 11 -65 11 l-65 0 0
-72z"/>
<path d="M20158 410 c-42 -33 -37 -101 6 -84 19 7 21 41 4 47 -10 3 -10 7 1
20 30 37 81 8 81 -44 0 -40 -13 -63 -72 -127 -26 -30 -48 -58 -48 -63 0 -5 35
-9 79 -9 l79 0 6 31 c8 42 8 49 -4 49 -5 0 -10 -9 -10 -20 0 -17 -7 -20 -51
-20 l-50 0 60 58 c53 50 61 62 61 94 0 49 -26 78 -75 85 -31 4 -46 0 -67 -17z"/>
<path d="M20380 402 c-50 -51 -61 -151 -24 -223 24 -47 90 -54 129 -14 55 54
19 165 -53 165 -15 0 -33 -5 -40 -12 -20 -20 -15 23 8 60 25 41 70 47 62 7 -3
-20 0 -25 17 -25 15 0 21 6 21 23 0 55 -73 66 -120 19z m80 -111 c5 -11 10
-36 10 -56 0 -49 -16 -75 -45 -75 -29 0 -45 26 -45 75 0 49 16 75 45 75 14 0
29 -8 35 -19z"/>
<path d="M825 411 c-3 -5 -19 -12 -35 -16 -40 -9 -40 -29 0 -21 l30 6 0 -110
0 -110 -25 0 c-14 0 -25 -4 -25 -10 0 -6 30 -10 70 -10 40 0 70 4 70 10 0 6
-11 10 -25 10 l-25 0 0 130 c0 107 -3 130 -14 130 -8 0 -17 -4 -21 -9z"/>
<path d="M1368 400 c-42 -33 -37 -101 6 -84 19 7 21 41 4 47 -10 3 -10 7 1 20
30 37 81 8 81 -44 0 -40 -13 -63 -72 -127 -26 -30 -48 -58 -48 -63 0 -5 35 -9
79 -9 l79 0 6 31 c8 42 8 49 -4 49 -5 0 -10 -9 -10 -20 0 -17 -7 -20 -51 -20
l-50 0 60 58 c53 50 61 62 61 94 0 49 -26 78 -75 85 -31 4 -46 0 -67 -17z"/>
<path d="M3675 411 c-3 -5 -19 -12 -35 -16 -40 -9 -40 -29 0 -21 l30 6 0 -110
0 -110 -25 0 c-14 0 -25 -4 -25 -10 0 -6 30 -10 70 -10 40 0 70 4 70 10 0 6
-11 10 -25 10 l-25 0 0 130 c0 107 -3 130 -14 130 -8 0 -17 -4 -21 -9z"/>
<path d="M3885 411 c-3 -5 -19 -12 -35 -16 -40 -9 -40 -29 0 -21 l30 6 0 -110
0 -110 -25 0 c-14 0 -25 -4 -25 -10 0 -6 30 -10 70 -10 40 0 70 4 70 10 0 6
-11 10 -25 10 l-25 0 0 130 c0 107 -3 130 -14 130 -8 0 -17 -4 -21 -9z"/>
<path d="M7893 325 c-35 -52 -63 -102 -63 -110 0 -12 13 -15 55 -15 48 0 55
-2 55 -20 0 -13 -7 -20 -20 -20 -11 0 -20 -4 -20 -10 0 -6 27 -10 60 -10 33 0
60 4 60 10 0 6 -9 10 -20 10 -13 0 -20 7 -20 20 0 13 7 20 20 20 11 0 20 7 20
15 0 8 -9 15 -20 15 -19 0 -20 7 -20 95 0 69 -3 95 -12 95 -7 0 -41 -43 -75
-95z m44 -92 c-3 -2 -21 -3 -41 -1 l-37 3 38 60 38 60 3 -59 c2 -32 1 -60 -1
-63z"/>
<path d="M9575 411 c-3 -5 -19 -12 -35 -16 -40 -9 -40 -29 0 -21 l30 6 0 -110
0 -110 -25 0 c-14 0 -25 -4 -25 -10 0 -6 30 -10 70 -10 40 0 70 4 70 10 0 6
-11 10 -25 10 l-25 0 0 130 c0 107 -3 130 -14 130 -8 0 -17 -4 -21 -9z"/>
<path d="M9738 400 c-42 -33 -37 -101 6 -84 19 7 21 41 4 47 -10 3 -10 7 1 20
30 37 81 8 81 -44 0 -40 -13 -63 -72 -127 -26 -30 -48 -58 -48 -63 0 -5 35 -9
79 -9 l79 0 6 31 c8 42 8 49 -4 49 -5 0 -10 -9 -10 -20 0 -17 -7 -20 -51 -20
l-50 0 60 58 c53 50 61 62 61 94 0 49 -26 78 -75 85 -31 4 -46 0 -67 -17z"/>
<path d="M10755 411 c-3 -5 -19 -12 -35 -16 -40 -9 -40 -29 0 -21 l30 6 0
-110 0 -110 -25 0 c-14 0 -25 -4 -25 -10 0 -6 30 -10 70 -10 40 0 70 4 70 10
0 6 -11 10 -25 10 l-25 0 0 130 c0 107 -3 130 -14 130 -8 0 -17 -4 -21 -9z"/>
<path d="M10943 325 c-35 -52 -63 -102 -63 -110 0 -12 13 -15 55 -15 48 0 55
-2 55 -20 0 -13 -7 -20 -20 -20 -11 0 -20 -4 -20 -10 0 -6 27 -10 60 -10 33 0
60 4 60 10 0 6 -9 10 -20 10 -13 0 -20 7 -20 20 0 13 7 20 20 20 11 0 20 7 20
15 0 8 -9 15 -20 15 -19 0 -20 7 -20 95 0 69 -3 95 -12 95 -7 0 -41 -43 -75
-95z m44 -92 c-3 -2 -21 -3 -41 -1 l-37 3 38 60 38 60 3 -59 c2 -32 1 -60 -1
-63z"/>
<path d="M11898 400 c-42 -33 -37 -101 6 -84 19 7 21 41 4 47 -10 3 -10 7 1
20 30 37 81 8 81 -44 0 -40 -13 -63 -72 -127 -26 -30 -48 -58 -48 -63 0 -5 35
-9 79 -9 l79 0 6 31 c8 42 8 49 -4 49 -5 0 -10 -9 -10 -20 0 -17 -7 -20 -51
-20 l-50 0 60 58 c53 50 61 62 61 94 0 49 -26 78 -75 85 -31 4 -46 0 -67 -17z"/>
<path d="M12145 411 c-3 -5 -19 -12 -35 -16 -40 -9 -40 -29 0 -21 l30 6 0
-110 0 -110 -25 0 c-14 0 -25 -4 -25 -10 0 -6 30 -10 70 -10 40 0 70 4 70 10
0 6 -11 10 -25 10 l-25 0 0 130 c0 107 -3 130 -14 130 -8 0 -17 -4 -21 -9z"/>
<path d="M12488 400 c-42 -33 -37 -101 6 -84 19 7 21 41 4 47 -10 3 -10 7 1
20 30 37 81 8 81 -44 0 -40 -13 -63 -72 -127 -26 -30 -48 -58 -48 -63 0 -5 35
-9 79 -9 l79 0 6 31 c8 42 8 49 -4 49 -5 0 -10 -9 -10 -20 0 -17 -7 -20 -51
-20 l-50 0 60 58 c53 50 61 62 61 94 0 49 -26 78 -75 85 -31 4 -46 0 -67 -17z"/>
<path d="M12688 400 c-42 -33 -37 -101 6 -84 19 7 21 41 4 47 -10 3 -10 7 1
20 30 37 81 8 81 -44 0 -40 -13 -63 -72 -127 -26 -30 -48 -58 -48 -63 0 -5 35
-9 79 -9 l79 0 6 31 c8 42 8 49 -4 49 -5 0 -10 -9 -10 -20 0 -17 -7 -20 -51
-20 l-50 0 60 58 c53 50 61 62 61 94 0 49 -26 78 -75 85 -31 4 -46 0 -67 -17z"/>
<path d="M18978 400 c-42 -33 -37 -101 6 -84 19 7 21 41 4 47 -10 3 -10 7 1
20 30 37 81 8 81 -44 0 -40 -13 -63 -72 -127 -26 -30 -48 -58 -48 -63 0 -5 35
-9 79 -9 l79 0 6 31 c8 42 8 49 -4 49 -5 0 -10 -9 -10 -20 0 -17 -7 -20 -51
-20 l-50 0 60 58 c53 50 61 62 61 94 0 49 -26 78 -75 85 -31 4 -46 0 -67 -17z"/>
<path d="M19213 325 c-35 -52 -63 -102 -63 -110 0 -12 13 -15 55 -15 48 0 55
-2 55 -20 0 -13 -7 -20 -20 -20 -11 0 -20 -4 -20 -10 0 -6 27 -10 60 -10 33 0
60 4 60 10 0 6 -9 10 -20 10 -13 0 -20 7 -20 20 0 13 7 20 20 20 11 0 20 7 20
15 0 8 -9 15 -20 15 -19 0 -20 7 -20 95 0 69 -3 95 -12 95 -7 0 -41 -43 -75
-95z m44 -92 c-3 -2 -21 -3 -41 -1 l-37 3 38 60 38 60 3 -59 c2 -32 1 -60 -1
-63z"/>
</g>
</svg>
