<?xml version="1.0" standalone="no"?>
<!DOCTYPE svg PUBLIC "-//W3C//DTD SVG 20010904//EN"
 "http://www.w3.org/TR/2001/REC-SVG-20010904/DTD/svg10.dtd">
<svg version="1.0" xmlns="http://www.w3.org/2000/svg"
 width="1358.000000pt" height="474.000000pt" viewBox="0 0 1358.000000 474.000000"
 preserveAspectRatio="xMidYMid meet">
<metadata>
Created by potrace 1.16, written by Peter Selinger 2001-2019
</metadata>
<g transform="translate(0.000000,474.000000) scale(0.100000,-0.100000)"
fill="#000000" stroke="none">
<path d="M5790 3825 l0 -785 950 0 950 0 0 785 0 785 -950 0 -950 0 0 -785z
m620 725 c0 -20 5 -30 15 -30 10 0 15 10 15 30 l0 30 300 0 300 0 0 -30 c0
-16 5 -30 10 -30 6 0 10 14 10 30 l0 30 300 0 300 0 0 -240 0 -240 -920 0
-920 0 0 240 0 240 295 0 295 0 0 -30z m1250 -725 l0 -245 -920 0 -920 0 0
245 0 245 920 0 920 0 0 -245z m0 -515 l0 -240 -300 0 -300 0 0 30 c0 17 -4
30 -10 30 -5 0 -10 -13 -10 -30 l0 -30 -300 0 -300 0 0 30 c0 20 -5 30 -15 30
-10 0 -15 -10 -15 -30 l0 -30 -295 0 -295 0 0 240 0 240 920 0 920 0 0 -240z"/>
<path d="M6061 4501 c-54 -54 -53 -218 2 -256 22 -16 63 -20 92 -9 30 12 45
60 45 144 0 77 -2 83 -29 111 -35 34 -81 39 -110 10z m89 -20 c5 -11 10 -60
10 -110 0 -79 -3 -94 -21 -112 -18 -18 -23 -19 -42 -6 -36 24 -47 172 -16 229
13 24 55 23 69 -1z"/>
<path d="M6703 4425 c-35 -52 -63 -102 -63 -110 0 -12 13 -15 55 -15 48 0 55
-2 55 -20 0 -13 -7 -20 -20 -20 -11 0 -20 -4 -20 -10 0 -6 27 -10 60 -10 33 0
60 4 60 10 0 6 -9 10 -20 10 -13 0 -20 7 -20 20 0 13 7 20 20 20 11 0 20 7 20
15 0 8 -9 15 -20 15 -19 0 -20 7 -20 95 0 69 -3 95 -12 95 -7 0 -41 -43 -75
-95z m44 -92 c-3 -2 -21 -3 -41 -1 l-37 3 38 60 38 60 3 -59 c2 -32 1 -60 -1
-63z"/>
<path d="M7311 4502 c-28 -22 -31 -75 -5 -103 17 -19 17 -22 3 -32 -67 -50
-33 -137 52 -137 79 0 119 82 67 137 -20 21 -20 24 -5 41 25 27 22 78 -5 96
-30 21 -81 20 -107 -2z m93 -23 c18 -26 3 -69 -24 -69 -23 0 -70 38 -70 55 0
36 71 46 94 14z m13 -166 c34 -50 -67 -90 -101 -41 -21 29 -20 40 5 72 l21 27
32 -20 c17 -11 37 -28 43 -38z"/>
<path d="M6410 4215 c0 -69 3 -85 15 -85 12 0 15 16 15 85 0 69 -3 85 -15 85
-12 0 -15 -16 -15 -85z"/>
<path d="M7040 4215 c0 -50 4 -85 10 -85 6 0 10 35 10 85 0 50 -4 85 -10 85
-6 0 -10 -35 -10 -85z"/>
<path d="M6105 3991 c-3 -5 -19 -12 -35 -16 -40 -9 -40 -29 0 -21 l30 6 0
-110 0 -110 -25 0 c-14 0 -25 -4 -25 -10 0 -6 30 -10 70 -10 40 0 70 4 70 10
0 6 -11 10 -25 10 l-25 0 0 130 c0 107 -3 130 -14 130 -8 0 -17 -4 -21 -9z"/>
<path d="M6670 3923 c0 -73 7 -86 30 -58 32 39 73 6 73 -60 0 -24 -5 -51 -13
-59 -14 -18 -47 -21 -70 -6 -13 8 -13 13 -2 30 15 25 8 40 -19 40 -14 0 -19
-7 -19 -30 0 -42 31 -70 79 -70 50 0 91 43 91 97 0 52 -48 98 -95 90 -33 -5
-35 -4 -35 22 0 24 4 28 30 28 34 0 80 21 80 37 0 7 -25 11 -65 11 l-65 0 0
-72z"/>
<path d="M7320 3972 c-50 -51 -61 -151 -24 -223 24 -47 90 -54 129 -14 55 54
19 165 -53 165 -15 0 -33 -5 -40 -12 -20 -20 -15 23 8 60 25 41 70 47 62 7 -3
-20 0 -25 17 -25 15 0 21 6 21 23 0 55 -73 66 -120 19z m80 -111 c5 -11 10
-36 10 -56 0 -49 -16 -75 -45 -75 -29 0 -45 26 -45 75 0 49 16 75 45 75 14 0
29 -8 35 -19z"/>
<path d="M6410 3825 c0 -69 3 -85 15 -85 12 0 15 16 15 85 0 69 -3 85 -15 85
-12 0 -15 -16 -15 -85z"/>
<path d="M7040 3825 c0 -50 4 -85 10 -85 6 0 10 35 10 85 0 50 -4 85 -10 85
-6 0 -10 -35 -10 -85z"/>
<path d="M6410 3435 c0 -69 3 -85 15 -85 12 0 15 16 15 85 0 69 -3 85 -15 85
-12 0 -15 -16 -15 -85z"/>
<path d="M7040 3435 c0 -50 4 -85 10 -85 6 0 10 35 10 85 0 50 -4 85 -10 85
-6 0 -10 -35 -10 -85z"/>
<path d="M6058 3470 c-42 -33 -37 -101 6 -84 19 7 21 41 4 47 -10 3 -10 7 1
20 30 37 81 8 81 -44 0 -40 -13 -63 -72 -127 -26 -30 -48 -58 -48 -63 0 -5 35
-9 79 -9 l79 0 6 31 c8 42 8 49 -4 49 -5 0 -10 -9 -10 -20 0 -17 -7 -20 -51
-20 l-50 0 60 58 c53 50 61 62 61 94 0 49 -26 78 -75 85 -31 4 -46 0 -67 -17z"/>
<path d="M6675 3465 c-29 -28 -31 -38 -10 -55 20 -17 37 -3 33 28 -3 23 1 27
24 30 18 2 30 -3 37 -16 16 -30 -5 -81 -35 -88 -24 -6 -24 -7 8 -23 30 -14 33
-20 33 -60 0 -51 -18 -68 -59 -57 -23 6 -26 9 -16 21 18 21 4 47 -22 43 -61
-8 -7 -88 60 -88 57 0 92 31 92 80 0 29 -6 43 -24 57 -23 19 -23 19 -5 42 11
13 19 36 19 52 0 58 -89 81 -135 34z"/>
<path d="M7290 3475 c0 -7 -3 -27 -6 -44 -7 -34 10 -44 19 -11 4 17 14 20 62
20 l56 0 -31 -45 c-37 -54 -60 -115 -60 -161 0 -27 4 -34 20 -34 22 0 27 14
33 97 3 40 13 67 45 115 23 35 38 64 34 65 -4 1 -44 3 -89 6 -61 3 -83 0 -83
-8z"/>
<path d="M3155 3908 c-76 -44 -49 -159 37 -158 37 1 59 14 76 47 19 35 14 63
-17 94 -31 30 -63 36 -96 17z"/>
<path d="M10245 3908 c-76 -44 -49 -159 37 -158 37 1 59 14 76 47 19 35 14 63
-17 94 -31 30 -63 36 -96 17z"/>
<path d="M2001 2949 c-662 -497 -930 -704 -923 -711 13 -13 1872 1376 1872
1398 0 8 -3 14 -7 14 -5 0 -428 -316 -942 -701z"/>
<path d="M3440 3636 c0 -22 1859 -1411 1872 -1398 7 7 -261 214 -924 711 -514
386 -938 701 -941 701 -4 0 -7 -6 -7 -14z"/>
<path d="M9094 2954 c-511 -383 -931 -699 -933 -701 -3 -2 0 -8 6 -14 8 -8
278 189 934 681 508 381 928 697 934 701 5 6 5 13 -1 19 -7 7 -311 -215 -940
-686z"/>
<path d="M10525 3639 c-4 -6 -5 -12 -4 -13 49 -40 1855 -1389 1866 -1393 70
-27 -113 117 -919 721 -511 383 -930 696 -932 696 -3 0 -8 -5 -11 -11z"/>
<path d="M3180 2940 c0 -571 2 -650 15 -650 13 0 15 79 15 650 0 571 -2 650
-15 650 -13 0 -15 -79 -15 -650z"/>
<path d="M10270 2940 c0 -427 3 -650 10 -650 7 0 10 223 10 650 0 427 -3 650
-10 650 -7 0 -10 -223 -10 -650z"/>
<path d="M6945 2780 c-3 -5 3 -27 15 -49 l20 -41 -272 -2 c-206 -2 -272 -6
-276 -15 -3 -10 57 -13 277 -13 l282 0 -20 -27 c-27 -39 -36 -73 -19 -73 8 0
20 16 26 34 8 21 27 44 48 57 l36 22 -32 20 c-17 11 -40 37 -51 58 -21 41 -24
45 -34 29z"/>
<path d="M6566 2528 c-17 -24 -21 -58 -8 -58 4 0 14 15 21 33 24 58 25 2 1
-96 -16 -63 -29 -97 -44 -109 -21 -17 -20 -18 32 -18 28 0 52 5 52 10 0 6 -7
10 -16 10 -11 0 -14 5 -10 16 3 9 6 22 6 29 0 10 9 12 35 8 30 -5 39 -1 69 29
43 43 56 97 32 134 -23 34 -44 40 -76 22 -21 -12 -28 -12 -38 -1 -19 19 -39
16 -56 -9z m138 -43 c-1 -69 -47 -136 -75 -108 -17 17 -3 96 23 128 30 38 53
29 52 -20z"/>
<path d="M6785 2476 c-29 -29 -29 -49 0 -54 14 -3 17 1 13 22 -6 30 23 46 47
26 28 -23 17 -59 -36 -116 l-52 -54 65 0 c51 0 67 4 72 16 9 24 7 44 -4 44 -5
0 -10 -7 -10 -15 0 -10 -10 -15 -32 -15 l-33 0 43 39 c61 56 55 113 -15 127
-26 5 -37 1 -58 -20z"/>
<path d="M795 2138 c-76 -44 -49 -159 37 -158 37 1 59 14 76 47 19 35 14 63
-17 94 -31 30 -63 36 -96 17z"/>
<path d="M3155 2138 c-76 -44 -49 -159 37 -158 37 1 59 14 76 47 19 35 14 63
-17 94 -31 30 -63 36 -96 17z"/>
<path d="M5515 2138 c-76 -44 -49 -159 37 -158 37 1 59 14 76 47 19 35 14 63
-17 94 -31 30 -63 36 -96 17z"/>
<path d="M7885 2138 c-76 -44 -49 -159 37 -158 37 1 59 14 76 47 19 35 14 63
-17 94 -31 30 -63 36 -96 17z"/>
<path d="M10245 2138 c-76 -44 -49 -159 37 -158 37 1 59 14 76 47 19 35 14 63
-17 94 -31 30 -63 36 -96 17z"/>
<path d="M12605 2138 c-76 -44 -49 -159 37 -158 37 1 59 14 76 47 19 35 14 63
-17 94 -31 30 -63 36 -96 17z"/>
<path d="M737 1813 c-2 -5 -95 -282 -207 -616 -177 -534 -216 -670 -181 -631
5 5 100 284 211 619 112 336 205 616 208 623 4 13 -24 17 -31 5z"/>
<path d="M820 1190 c0 -553 2 -630 15 -630 13 0 15 77 15 630 0 553 -2 630
-15 630 -13 0 -15 -77 -15 -630z"/>
<path d="M900 1813 c0 -4 93 -288 207 -630 128 -383 213 -623 220 -623 7 0 13
3 13 7 0 4 -93 288 -207 630 -128 383 -213 623 -220 623 -7 0 -13 -3 -13 -7z"/>
<path d="M2895 1199 c-148 -444 -204 -624 -196 -632 7 -7 12 -6 16 4 8 21 415
1243 415 1246 0 2 -6 3 -14 3 -10 0 -77 -189 -221 -621z"/>
<path d="M3180 1195 c0 -549 2 -625 15 -625 13 0 15 76 15 625 0 549 -2 625
-15 625 -13 0 -15 -76 -15 -625z"/>
<path d="M3264 1803 c3 -10 97 -292 209 -627 176 -528 227 -664 227 -604 0 7
-93 291 -206 630 -149 447 -210 618 -221 618 -9 0 -12 -6 -9 -17z"/>
<path d="M5258 1198 c-134 -402 -204 -626 -198 -632 5 -5 11 -8 13 -5 6 5 417
1242 417 1252 0 4 -6 7 -13 7 -7 0 -92 -240 -219 -622z"/>
<path d="M5540 1195 c0 -549 2 -625 15 -625 13 0 15 76 15 625 0 549 -2 625
-15 625 -13 0 -15 -76 -15 -625z"/>
<path d="M5622 1809 c3 -8 96 -288 208 -624 111 -335 206 -614 211 -619 35
-39 -4 97 -183 636 -163 488 -208 614 -223 617 -12 2 -16 -2 -13 -10z"/>
<path d="M7621 1208 c-112 -336 -204 -618 -205 -626 -1 -8 4 -17 11 -19 7 -3
86 221 217 614 113 340 206 624 206 631 0 6 -6 12 -13 12 -7 0 -91 -236 -216
-612z"/>
<path d="M7910 1195 c0 -410 3 -625 10 -625 7 0 10 215 10 625 0 410 -3 625
-10 625 -7 0 -10 -215 -10 -625z"/>
<path d="M7990 1808 c0 -23 411 -1248 419 -1248 4 0 10 3 13 6 9 8 -407 1247
-420 1252 -7 2 -12 -2 -12 -10z"/>
<path d="M10185 1808 c-8 -21 -415 -1243 -415 -1245 0 -2 6 -3 14 -3 10 0 77
188 220 618 113 339 206 623 206 630 0 16 -19 16 -25 0z"/>
<path d="M10270 1190 c0 -413 3 -630 10 -630 7 0 10 217 10 630 0 413 -3 630
-10 630 -7 0 -10 -217 -10 -630z"/>
<path d="M10350 1813 c0 -10 411 -1247 417 -1252 2 -3 8 0 13 5 13 13 -400
1254 -417 1254 -7 0 -13 -3 -13 -7z"/>
<path d="M12346 1202 c-113 -339 -206 -623 -206 -630 0 -60 51 76 227 604 112
335 206 617 209 627 3 11 0 17 -9 17 -11 0 -72 -171 -221 -618z"/>
<path d="M12630 1195 c0 -549 2 -625 15 -625 13 0 15 76 15 625 0 549 -2 625
-15 625 -13 0 -15 -76 -15 -625z"/>
<path d="M12710 1813 c0 -10 411 -1247 417 -1252 2 -3 8 0 14 6 16 16 -396
1253 -417 1253 -8 0 -14 -3 -14 -7z"/>
<path d="M191 411 c-54 -54 -53 -218 2 -256 22 -16 63 -20 92 -9 30 12 45 60
45 144 0 77 -2 83 -29 111 -35 34 -81 39 -110 10z m89 -20 c5 -11 10 -60 10
-110 0 -79 -3 -94 -21 -112 -18 -18 -23 -19 -42 -6 -36 24 -47 172 -16 229 13
24 55 23 69 -1z"/>
<path d="M2553 415 c-26 -19 -47 -77 -38 -107 18 -58 89 -89 124 -55 11 10 12
7 7 -18 -11 -46 -34 -75 -60 -75 -17 0 -22 5 -22 23 1 26 -37 32 -42 6 -9 -45
74 -65 120 -29 38 30 51 71 46 151 -3 63 -7 74 -31 95 -32 27 -73 31 -104 9z
m76 -18 c30 -37 20 -128 -16 -142 -28 -10 -53 24 -53 72 0 24 5 53 10 64 12
22 43 25 59 6z"/>
<path d="M3085 421 c-3 -5 -19 -12 -35 -16 -40 -9 -40 -29 0 -21 l30 6 0 -110
0 -110 -25 0 c-14 0 -25 -4 -25 -10 0 -6 30 -10 70 -10 40 0 70 4 70 10 0 6
-11 10 -25 10 l-25 0 0 130 c0 107 -3 130 -14 130 -8 0 -17 -4 -21 -9z"/>
<path d="M3241 411 c-54 -54 -53 -218 2 -256 22 -16 63 -20 92 -9 30 12 45 60
45 144 0 77 -2 83 -29 111 -35 34 -81 39 -110 10z m89 -20 c5 -11 10 -60 10
-110 0 -79 -3 -94 -21 -112 -18 -18 -23 -19 -42 -6 -36 24 -47 172 -16 229 13
24 55 23 69 -1z"/>
<path d="M4855 421 c-3 -5 -19 -12 -35 -16 -40 -9 -40 -29 0 -21 l30 6 0 -110
0 -110 -25 0 c-14 0 -25 -4 -25 -10 0 -6 30 -10 70 -10 40 0 70 4 70 10 0 6
-11 10 -25 10 l-25 0 0 130 c0 107 -3 130 -14 130 -8 0 -17 -4 -21 -9z"/>
<path d="M5021 412 c-28 -22 -31 -75 -5 -103 17 -19 17 -22 3 -32 -67 -50 -33
-137 52 -137 79 0 119 82 67 137 -20 21 -20 24 -5 41 25 27 22 78 -5 96 -30
21 -81 20 -107 -2z m93 -23 c18 -26 3 -69 -24 -69 -23 0 -70 38 -70 55 0 36
71 46 94 14z m13 -166 c34 -50 -67 -90 -101 -41 -21 29 -20 40 5 72 l21 27 32
-20 c17 -11 37 -28 43 -38z"/>
<path d="M5445 421 c-3 -5 -19 -12 -35 -16 -40 -9 -40 -29 0 -21 l30 6 0 -110
0 -110 -25 0 c-14 0 -25 -4 -25 -10 0 -6 30 -10 70 -10 40 0 70 4 70 10 0 6
-11 10 -25 10 l-25 0 0 130 c0 107 -3 130 -14 130 -8 0 -17 -4 -21 -9z"/>
<path d="M5613 415 c-26 -19 -47 -77 -38 -107 18 -58 89 -89 124 -55 11 10 12
7 7 -18 -11 -46 -34 -75 -60 -75 -17 0 -22 5 -22 23 1 26 -37 32 -42 6 -9 -45
74 -65 120 -29 38 30 51 71 46 151 -3 63 -7 74 -31 95 -32 27 -73 31 -104 9z
m76 -18 c30 -37 20 -128 -16 -142 -28 -10 -53 24 -53 72 0 24 5 53 10 64 12
22 43 25 59 6z"/>
<path d="M5988 410 c-42 -33 -37 -101 6 -84 19 7 21 41 4 47 -10 3 -10 7 1 20
30 37 81 8 81 -44 0 -40 -13 -63 -72 -127 -26 -30 -48 -58 -48 -63 0 -5 35 -9
79 -9 l79 0 6 31 c8 42 8 49 -4 49 -5 0 -10 -9 -10 -20 0 -17 -7 -20 -51 -20
l-50 0 60 58 c53 50 61 62 61 94 0 49 -26 78 -75 85 -31 4 -46 0 -67 -17z"/>
<path d="M6201 411 c-54 -54 -53 -218 2 -256 22 -16 63 -20 92 -9 30 12 45 60
45 144 0 77 -2 83 -29 111 -35 34 -81 39 -110 10z m89 -20 c5 -11 10 -60 10
-110 0 -79 -3 -94 -21 -112 -18 -18 -23 -19 -42 -6 -36 24 -47 172 -16 229 13
24 55 23 69 -1z"/>
<path d="M7271 411 c-54 -54 -53 -218 2 -256 22 -16 63 -20 92 -9 30 12 45 60
45 144 0 77 -2 83 -29 111 -35 34 -81 39 -110 10z m89 -20 c5 -11 10 -60 10
-110 0 -79 -3 -94 -21 -112 -18 -18 -23 -19 -42 -6 -36 24 -47 172 -16 229 13
24 55 23 69 -1z"/>
<path d="M7805 421 c-3 -5 -19 -12 -35 -16 -40 -9 -40 -29 0 -21 l30 6 0 -110
0 -110 -25 0 c-14 0 -25 -4 -25 -10 0 -6 30 -10 70 -10 40 0 70 4 70 10 0 6
-11 10 -25 10 l-25 0 0 130 c0 107 -3 130 -14 130 -8 0 -17 -4 -21 -9z"/>
<path d="M7971 411 c-54 -54 -53 -218 2 -256 22 -16 63 -20 92 -9 30 12 45 60
45 144 0 77 -2 83 -29 111 -35 34 -81 39 -110 10z m89 -20 c5 -11 10 -60 10
-110 0 -79 -3 -94 -21 -112 -18 -18 -23 -19 -42 -6 -36 24 -47 172 -16 229 13
24 55 23 69 -1z"/>
<path d="M8348 410 c-42 -33 -37 -101 6 -84 19 7 21 41 4 47 -10 3 -10 7 1 20
30 37 81 8 81 -44 0 -40 -13 -63 -72 -127 -26 -30 -48 -58 -48 -63 0 -5 35 -9
79 -9 l79 0 6 31 c8 42 8 49 -4 49 -5 0 -10 -9 -10 -20 0 -17 -7 -20 -51 -20
l-50 0 60 58 c53 50 61 62 61 94 0 49 -26 78 -75 85 -31 4 -46 0 -67 -17z"/>
<path d="M8561 411 c-54 -54 -53 -218 2 -256 22 -16 63 -20 92 -9 30 12 45 60
45 144 0 77 -2 83 -29 111 -35 34 -81 39 -110 10z m89 -20 c5 -11 10 -60 10
-110 0 -79 -3 -94 -21 -112 -18 -18 -23 -19 -42 -6 -36 24 -47 172 -16 229 13
24 55 23 69 -1z"/>
<path d="M10755 421 c-3 -5 -19 -12 -35 -16 -40 -9 -40 -29 0 -21 l30 6 0
-110 0 -110 -25 0 c-14 0 -25 -4 -25 -10 0 -6 30 -10 70 -10 40 0 70 4 70 10
0 6 -11 10 -25 10 l-25 0 0 130 c0 107 -3 130 -14 130 -8 0 -17 -4 -21 -9z"/>
<path d="M10921 412 c-28 -22 -31 -75 -5 -103 17 -19 17 -22 3 -32 -67 -50
-33 -137 52 -137 79 0 119 82 67 137 -20 21 -20 24 -5 41 25 27 22 78 -5 96
-30 21 -81 20 -107 -2z m93 -23 c18 -26 3 -69 -24 -69 -23 0 -70 38 -70 55 0
36 71 46 94 14z m13 -166 c34 -50 -67 -90 -101 -41 -21 29 -20 40 5 72 l21 27
32 -20 c17 -11 37 -28 43 -38z"/>
<path d="M12593 415 c-26 -19 -47 -77 -38 -107 18 -58 89 -89 124 -55 11 10
12 7 7 -18 -11 -46 -34 -75 -60 -75 -17 0 -22 5 -22 23 1 26 -37 32 -42 6 -9
-45 74 -65 120 -29 38 30 51 71 46 151 -3 63 -7 74 -31 95 -32 27 -73 31 -104
9z m76 -18 c30 -37 20 -128 -16 -142 -28 -10 -53 24 -53 72 0 24 5 53 10 64
12 22 43 25 59 6z"/>
<path d="M13125 421 c-3 -5 -19 -12 -35 -16 -40 -9 -40 -29 0 -21 l30 6 0
-110 0 -110 -25 0 c-14 0 -25 -4 -25 -10 0 -6 30 -10 70 -10 40 0 70 4 70 10
0 6 -11 10 -25 10 l-25 0 0 130 c0 107 -3 130 -14 130 -8 0 -17 -4 -21 -9z"/>
<path d="M13283 415 c-26 -19 -47 -77 -38 -107 18 -58 89 -89 124 -55 11 10
12 7 7 -18 -11 -46 -34 -75 -60 -75 -17 0 -22 5 -22 23 1 26 -37 32 -42 6 -9
-45 74 -65 120 -29 38 30 51 71 46 151 -3 63 -7 74 -31 95 -32 27 -73 31 -104
9z m76 -18 c30 -37 20 -128 -16 -142 -28 -10 -53 24 -53 72 0 24 5 53 10 64
12 22 43 25 59 6z"/>
<path d="M825 411 c-3 -5 -19 -12 -35 -16 -40 -9 -40 -29 0 -21 l30 6 0 -110
0 -110 -25 0 c-14 0 -25 -4 -25 -10 0 -6 30 -10 70 -10 40 0 70 4 70 10 0 6
-11 10 -25 10 l-25 0 0 130 c0 107 -3 130 -14 130 -8 0 -17 -4 -21 -9z"/>
<path d="M1368 400 c-42 -33 -37 -101 6 -84 19 7 21 41 4 47 -10 3 -10 7 1 20
30 37 81 8 81 -44 0 -40 -13 -63 -72 -127 -26 -30 -48 -58 -48 -63 0 -5 35 -9
79 -9 l79 0 6 31 c8 42 8 49 -4 49 -5 0 -10 -9 -10 -20 0 -17 -7 -20 -51 -20
l-50 0 60 58 c53 50 61 62 61 94 0 49 -26 78 -75 85 -31 4 -46 0 -67 -17z"/>
<path d="M3675 411 c-3 -5 -19 -12 -35 -16 -40 -9 -40 -29 0 -21 l30 6 0 -110
0 -110 -25 0 c-14 0 -25 -4 -25 -10 0 -6 30 -10 70 -10 40 0 70 4 70 10 0 6
-11 10 -25 10 l-25 0 0 130 c0 107 -3 130 -14 130 -8 0 -17 -4 -21 -9z"/>
<path d="M3885 411 c-3 -5 -19 -12 -35 -16 -40 -9 -40 -29 0 -21 l30 6 0 -110
0 -110 -25 0 c-14 0 -25 -4 -25 -10 0 -6 30 -10 70 -10 40 0 70 4 70 10 0 6
-11 10 -25 10 l-25 0 0 130 c0 107 -3 130 -14 130 -8 0 -17 -4 -21 -9z"/>
<path d="M9685 411 c-3 -5 -19 -12 -35 -16 -40 -9 -40 -29 0 -21 l30 6 0 -110
0 -110 -25 0 c-14 0 -25 -4 -25 -10 0 -6 30 -10 70 -10 40 0 70 4 70 10 0 6
-11 10 -25 10 l-25 0 0 130 c0 107 -3 130 -14 130 -8 0 -17 -4 -21 -9z"/>
<path d="M10165 411 c-3 -5 -19 -12 -35 -16 -40 -9 -40 -29 0 -21 l30 6 0
-110 0 -110 -25 0 c-14 0 -25 -4 -25 -10 0 -6 30 -10 70 -10 40 0 70 4 70 10
0 6 -11 10 -25 10 l-25 0 0 130 c0 107 -3 130 -14 130 -8 0 -17 -4 -21 -9z"/>
<path d="M10375 411 c-3 -5 -19 -12 -35 -16 -40 -9 -40 -29 0 -21 l30 6 0
-110 0 -110 -25 0 c-14 0 -25 -4 -25 -10 0 -6 30 -10 70 -10 40 0 70 4 70 10
0 6 -11 10 -25 10 l-25 0 0 130 c0 107 -3 130 -14 130 -8 0 -17 -4 -21 -9z"/>
<path d="M11998 400 c-42 -33 -37 -101 6 -84 19 7 21 41 4 47 -10 3 -10 7 1
20 30 37 81 8 81 -44 0 -40 -13 -63 -72 -127 -26 -30 -48 -58 -48 -63 0 -5 35
-9 79 -9 l79 0 6 31 c8 42 8 49 -4 49 -5 0 -10 -9 -10 -20 0 -17 -7 -20 -51
-20 l-50 0 60 58 c53 50 61 62 61 94 0 49 -26 78 -75 85 -31 4 -46 0 -67 -17z"/>
</g>
</svg>
