<?xml version="1.0" standalone="no"?>
<!DOCTYPE svg PUBLIC "-//W3C//DTD SVG 20010904//EN"
 "http://www.w3.org/TR/2001/REC-SVG-20010904/DTD/svg10.dtd">
<svg version="1.0" xmlns="http://www.w3.org/2000/svg"
 width="1111.000000pt" height="406.000000pt" viewBox="0 0 1111.000000 406.000000"
 preserveAspectRatio="xMidYMid meet">
<metadata>
Created by potrace 1.16, written by Peter Selinger 2001-2019
</metadata>
<g transform="translate(0.000000,406.000000) scale(0.100000,-0.100000)"
fill="#000000" stroke="none">
<path d="M5515 3908 c-76 -44 -49 -159 37 -158 37 1 59 14 76 47 19 35 14 63
-17 94 -31 30 -63 36 -96 17z"/>
<path d="M3478 2952 c-1199 -514 -1808 -780 -1808 -790 0 -9 6 -12 18 -8 9 4
828 354 1820 779 1025 439 1802 777 1802 784 0 7 -6 13 -12 12 -7 -1 -826
-350 -1820 -777z"/>
<path d="M5800 3718 c1 -19 3631 -1571 3643 -1559 6 6 9 12 6 15 -9 8 -3628
1556 -3638 1556 -6 0 -11 -6 -11 -12z"/>
<path d="M5540 2940 c0 -571 2 -650 15 -650 13 0 15 79 15 650 0 571 -2 650
-15 650 -13 0 -15 -79 -15 -650z"/>
<path d="M1385 2138 c-31 -18 -44 -40 -45 -76 -1 -87 117 -113 158 -35 19 35
14 63 -17 94 -31 30 -63 36 -96 17z"/>
<path d="M5515 2138 c-76 -44 -49 -159 37 -158 37 1 59 14 76 47 19 35 14 63
-17 94 -31 30 -63 36 -96 17z"/>
<path d="M9655 2138 c-76 -44 -49 -159 37 -158 37 1 59 14 76 47 19 35 14 63
-17 94 -31 30 -63 36 -96 17z"/>
<path d="M835 1203 c-294 -442 -413 -629 -406 -636 6 -6 12 -9 14 -6 5 5 820
1229 830 1245 4 7 1 14 -7 17 -9 4 -144 -190 -431 -620z"/>
<path d="M1575 1819 c-4 -6 180 -292 410 -636 302 -454 420 -622 428 -614 8 8
-103 181 -403 631 -228 342 -417 623 -421 626 -4 2 -11 -1 -14 -7z"/>
<path d="M4971 1202 c-231 -346 -417 -633 -414 -636 4 -3 10 -6 15 -6 4 0 196
281 425 625 302 454 414 628 406 636 -8 8 -127 -162 -432 -619z"/>
<path d="M5713 1822 c-16 -10 810 -1252 832 -1252 8 0 15 2 15 5 0 5 -816
1233 -829 1247 -3 4 -12 4 -18 0z"/>
<path d="M9106 1205 c-229 -344 -416 -629 -416 -635 0 -5 6 -10 13 -10 11 1
829 1218 835 1245 14 59 -69 -56 -432 -600z"/>
<path d="M9845 1819 c-4 -6 180 -292 410 -636 302 -454 420 -622 428 -614 8 8
-103 181 -403 631 -228 342 -417 623 -421 626 -4 2 -11 -1 -14 -7z"/>
<path d="M1410 1195 c0 -549 2 -625 15 -625 13 0 15 76 15 625 0 549 -2 625
-15 625 -13 0 -15 -76 -15 -625z"/>
<path d="M5540 1195 c0 -549 2 -625 15 -625 13 0 15 76 15 625 0 549 -2 625
-15 625 -13 0 -15 -76 -15 -625z"/>
<path d="M9680 1195 c0 -410 3 -625 10 -625 7 0 10 215 10 625 0 410 -3 625
-10 625 -7 0 -10 -215 -10 -625z"/>
<path d="M191 411 c-54 -54 -53 -218 2 -256 22 -16 63 -20 92 -9 30 12 45 60
45 144 0 77 -2 83 -29 111 -35 34 -81 39 -110 10z m89 -20 c5 -11 10 -60 10
-110 0 -79 -3 -94 -21 -112 -18 -18 -23 -19 -42 -6 -36 24 -47 172 -16 229 13
24 55 23 69 -1z"/>
<path d="M1365 405 c-29 -28 -31 -38 -10 -55 20 -17 37 -3 33 28 -3 23 1 27
24 30 18 2 30 -3 37 -16 16 -30 -5 -81 -35 -88 -24 -6 -24 -7 8 -23 30 -14 33
-20 33 -60 0 -51 -18 -68 -59 -57 -23 6 -26 9 -16 21 18 21 4 47 -22 43 -61
-8 -7 -88 60 -88 57 0 92 31 92 80 0 29 -6 43 -24 57 -23 19 -23 19 -5 42 11
13 19 36 19 52 0 58 -89 81 -135 34z"/>
<path d="M2560 402 c-50 -51 -61 -151 -24 -223 15 -30 33 -39 75 -39 73 0 109
111 54 165 -26 27 -73 33 -93 13 -20 -20 -15 23 8 60 25 41 70 47 62 7 -3 -20
0 -25 17 -25 15 0 21 6 21 23 0 55 -73 66 -120 19z m80 -111 c5 -11 10 -36 10
-56 0 -49 -16 -75 -45 -75 -29 0 -45 26 -45 75 0 49 16 75 45 75 14 0 29 -8
35 -19z"/>
<path d="M6660 415 c0 -7 -3 -27 -6 -44 -7 -34 10 -44 19 -11 4 17 14 20 62
20 l56 0 -31 -45 c-37 -54 -60 -115 -60 -161 0 -27 4 -34 20 -34 22 0 27 14
33 97 3 40 13 67 45 115 23 35 38 64 34 65 -4 1 -44 3 -89 6 -61 3 -83 0 -83
-8z"/>
<path d="M9630 353 c0 -73 7 -86 30 -58 32 39 73 6 73 -60 0 -24 -5 -51 -13
-59 -14 -18 -47 -21 -70 -6 -13 8 -13 13 -2 30 15 25 8 40 -19 40 -14 0 -19
-7 -19 -30 0 -42 31 -70 79 -70 50 0 91 43 91 97 0 52 -48 98 -95 90 -33 -5
-35 -4 -35 22 0 24 4 28 30 28 34 0 80 21 80 37 0 7 -25 11 -65 11 l-65 0 0
-72z"/>
<path d="M10821 412 c-28 -22 -31 -75 -5 -103 17 -19 17 -22 3 -32 -67 -50
-33 -137 52 -137 79 0 119 82 67 137 -20 21 -20 24 -5 41 25 27 22 78 -5 96
-30 21 -81 20 -107 -2z m93 -23 c18 -26 3 -69 -24 -69 -23 0 -70 38 -70 55 0
36 71 46 94 14z m13 -166 c34 -50 -67 -90 -101 -41 -21 29 -20 40 5 72 l21 27
32 -20 c17 -11 37 -28 43 -38z"/>
<path d="M4365 411 c-3 -5 -19 -12 -35 -16 -40 -9 -40 -29 0 -21 l30 6 0 -110
0 -110 -25 0 c-14 0 -25 -4 -25 -10 0 -6 30 -10 70 -10 40 0 70 4 70 10 0 6
-11 10 -25 10 l-25 0 0 130 c0 107 -3 130 -14 130 -8 0 -17 -4 -21 -9z"/>
<path d="M5523 325 c-35 -52 -63 -102 -63 -110 0 -12 13 -15 55 -15 48 0 55
-2 55 -20 0 -13 -7 -20 -20 -20 -11 0 -20 -4 -20 -10 0 -6 27 -10 60 -10 33 0
60 4 60 10 0 6 -9 10 -20 10 -13 0 -20 7 -20 20 0 13 7 20 20 20 11 0 20 7 20
15 0 8 -9 15 -20 15 -19 0 -20 7 -20 95 0 69 -3 95 -12 95 -7 0 -41 -43 -75
-95z m44 -92 c-3 -2 -21 -3 -41 -1 l-37 3 38 60 38 60 3 -59 c2 -32 1 -60 -1
-63z"/>
<path d="M8458 400 c-42 -33 -37 -101 6 -84 19 7 21 41 4 47 -10 3 -10 7 1 20
30 37 81 8 81 -44 0 -40 -13 -63 -72 -127 -26 -30 -48 -58 -48 -63 0 -5 35 -9
79 -9 l79 0 6 31 c8 42 8 49 -4 49 -5 0 -10 -9 -10 -20 0 -17 -7 -20 -51 -20
l-50 0 60 58 c53 50 61 62 61 94 0 49 -26 78 -75 85 -31 4 -46 0 -67 -17z"/>
</g>
</svg>
