<svg xmlns="http://www.w3.org/2000/svg" width="720" height="720" viewBox="0 0 720 720"><rect width="720" height="720" fill="#ffffff" /><polygon points="322.737,190.328 322.737,258.197 381.514,292.131 347.579,350.907 415.448,350.907 415.448,283.039 415.448,215.170 347.579,215.170 313.645,156.394 254.869,190.328" fill="#e67e22" stroke="#000000" stroke-width="3.393" stroke-linejoin="round" stroke-linecap="round" /><polygon points="196.093,292.131 254.869,326.066 313.645,292.131 347.579,350.907 381.514,292.131 322.737,258.197 263.961,224.263 230.027,283.039 162.158,283.039 162.158,350.907" fill="#3478be" stroke="#000000" stroke-width="3.393" stroke-linejoin="round" stroke-linecap="round" /><polygon points="162.158,283.039 230.027,283.039 263.961,224.263 322.737,258.197 322.737,190.328 254.869,190.328 187.000,190.328 187.000,258.197 128.224,292.131 162.158,350.907" fill="#3478be" stroke="#000000" stroke-width="3.393" stroke-linejoin="round" stroke-linecap="round" /><polygon points="313.645,156.394 347.579,215.170 415.448,215.170 415.448,283.039 474.224,249.104 440.290,190.328 406.355,131.552 347.579,165.486 288.803,131.552 254.869,190.328" fill="#3478be" stroke="#000000" stroke-width="3.393" stroke-linejoin="round" stroke-linecap="round" /><polygon points="474.224,249.104 415.448,283.039 415.448,350.907 347.579,350.907 381.514,409.683 440.290,375.749 499.066,341.815 465.131,283.039 499.066,224.263 440.290,190.328" fill="#3478be" stroke="#000000" stroke-width="3.393" stroke-linejoin="round" stroke-linecap="round" /><polygon points="187.000,190.328 254.869,190.328 288.803,131.552 347.579,165.486 347.579,97.618 279.710,97.618 211.842,97.618 211.842,165.486 153.066,199.421 187.000,258.197" fill="#3478be" stroke="#000000" stroke-width="3.393" stroke-linejoin="round" stroke-linecap="round" /><polygon points="499.066,409.683 440.290,375.749 381.514,409.683 347.579,350.907 313.645,409.683 372.421,443.618 431.197,477.552 465.131,418.776 533.000,418.776 533.000,350.907" fill="#3478be" stroke="#000000" stroke-width="3.393" stroke-linejoin="round" stroke-linecap="round" /><polygon points="372.421,511.486 372.421,443.618 313.645,409.683 347.579,350.907 279.710,350.907 279.710,418.776 279.710,486.645 347.579,486.645 381.514,545.421 440.290,511.486" fill="#3478be" stroke="#000000" stroke-width="3.393" stroke-linejoin="round" stroke-linecap="round" /><polygon points="220.934,452.710 279.710,418.776 279.710,350.907 347.579,350.907 313.645,292.131 254.869,326.066 196.093,360.000 230.027,418.776 196.093,477.552 254.869,511.486" fill="#3478be" stroke="#000000" stroke-width="3.393" stroke-linejoin="round" stroke-linecap="round" /><polygon points="381.514,545.421 347.579,486.645 279.710,486.645 279.710,418.776 220.934,452.710 254.869,511.486 288.803,570.263 347.579,536.328 406.355,570.263 440.290,511.486" fill="#78afe1" stroke="#000000" stroke-width="3.393" stroke-linejoin="round" stroke-linecap="round" /><polygon points="533.000,418.776 465.131,418.776 431.197,477.552 372.421,443.618 372.421,511.486 440.290,511.486 508.158,511.486 508.158,443.618 566.934,409.683 533.000,350.907" fill="#78afe1" stroke="#000000" stroke-width="3.393" stroke-linejoin="round" stroke-linecap="round" /><polygon points="499.066,224.263 465.131,283.039 499.066,341.815 440.290,375.749 499.066,409.683 533.000,350.907 566.934,292.131 508.158,258.197 508.158,190.328 440.290,190.328" fill="#78afe1" stroke="#000000" stroke-width="3.393" stroke-linejoin="round" stroke-linecap="round" /><polygon points="245.776,38.842 279.710,97.618 347.579,97.618 347.579,165.486 406.355,131.552 372.421,72.776 338.486,14.000 279.710,47.934 220.934,14.000 187.000,72.776" fill="#78afe1" stroke="#000000" stroke-width="3.393" stroke-linejoin="round" stroke-linecap="round" /><polygon points="153.066,199.421 211.842,165.486 211.842,97.618 279.710,97.618 245.776,38.842 187.000,72.776 128.224,106.710 162.158,165.486 128.224,224.263 187.000,258.197" fill="#78afe1" stroke="#000000" stroke-width="3.393" stroke-linejoin="round" stroke-linecap="round" /><polygon points="128.224,409.683 162.158,350.907 128.224,292.131 187.000,258.197 128.224,224.263 94.290,283.039 60.355,341.815 119.131,375.749 119.131,443.618 187.000,443.618" fill="#78afe1" stroke="#000000" stroke-width="3.393" stroke-linejoin="round" stroke-linecap="round" /><polygon points="196.093,477.552 230.027,418.776 196.093,360.000 254.869,326.066 196.093,292.131 162.158,350.907 128.224,409.683 187.000,443.618 187.000,511.486 254.869,511.486" fill="#78afe1" stroke="#000000" stroke-width="3.393" stroke-linejoin="round" stroke-linecap="round" /><polygon points="533.000,165.486 499.066,106.710 431.197,106.710 431.197,38.842 372.421,72.776 406.355,131.552 440.290,190.328 499.066,156.394 557.842,190.328 591.776,131.552" fill="#78afe1" stroke="#000000" stroke-width="3.393" stroke-linejoin="round" stroke-linecap="round" /><polygon points="508.158,190.328 508.158,258.197 566.934,292.131 533.000,350.907 600.869,350.907 600.869,283.039 600.869,215.170 533.000,215.170 499.066,156.394 440.290,190.328" fill="#78afe1" stroke="#000000" stroke-width="3.393" stroke-linejoin="round" stroke-linecap="round" /><polygon points="591.776,384.842 557.842,443.618 591.776,502.394 533.000,536.328 591.776,570.263 625.710,511.486 659.645,452.710 600.869,418.776 600.869,350.907 533.000,350.907" fill="#78afe1" stroke="#000000" stroke-width="3.393" stroke-linejoin="round" stroke-linecap="round" /><polygon points="566.934,409.683 508.158,443.618 508.158,511.486 440.290,511.486 474.224,570.263 533.000,536.328 591.776,502.394 557.842,443.618 591.776,384.842 533.000,350.907" fill="#78afe1" stroke="#000000" stroke-width="3.393" stroke-linejoin="round" stroke-linecap="round" /><polygon points="440.290,579.355 372.421,579.355 338.486,638.131 279.710,604.197 279.710,672.066 347.579,672.066 415.448,672.066 415.448,604.197 474.224,570.263 440.290,511.486" fill="#78afe1" stroke="#000000" stroke-width="3.393" stroke-linejoin="round" stroke-linecap="round" /><polygon points="406.355,570.263 347.579,536.328 288.803,570.263 254.869,511.486 220.934,570.263 279.710,604.197 338.486,638.131 372.421,579.355 440.290,579.355 440.290,511.486" fill="#78afe1" stroke="#000000" stroke-width="3.393" stroke-linejoin="round" stroke-linecap="round" /><polygon points="279.710,672.066 279.710,604.197 220.934,570.263 254.869,511.486 187.000,511.486 187.000,579.355 187.000,647.224 254.869,647.224 288.803,706.000 347.579,672.066" fill="#78afe1" stroke="#000000" stroke-width="3.393" stroke-linejoin="round" stroke-linecap="round" /></svg>