<svg xmlns="http://www.w3.org/2000/svg" viewBox="0 0 200 200" width="200" height="200" fill="none" role="img" aria-label="Regular 12-gon over Z[zeta_12]">
<title>Regular 12-gon over Z[zeta_12]</title>
<line x1="123.00" y1="185.84" x2="154.61" y2="167.59" stroke="#d32222" stroke-width="2.6" stroke-linecap="round"/>
<polygon points="162.84,162.84 155.61,172.32 151.01,164.35" fill="#d32222"/>
<line x1="162.84" y1="162.84" x2="181.09" y2="131.23" stroke="#d37a22" stroke-width="2.6" stroke-linecap="round"/>
<polygon points="185.84,123.00 184.32,134.83 176.35,130.23" fill="#d37a22"/>
<line x1="185.84" y1="123.00" x2="185.84" y2="86.50" stroke="#d3d322" stroke-width="2.6" stroke-linecap="round"/>
<polygon points="185.84,77.00 190.44,88.00 181.24,88.00" fill="#d3d322"/>
<line x1="185.84" y1="77.00" x2="167.59" y2="45.39" stroke="#7ad322" stroke-width="2.6" stroke-linecap="round"/>
<polygon points="162.84,37.16 172.32,44.39 164.35,48.99" fill="#7ad322"/>
<line x1="162.84" y1="37.16" x2="131.23" y2="18.91" stroke="#22d322" stroke-width="2.6" stroke-linecap="round"/>
<polygon points="123.00,14.16 134.83,15.68 130.23,23.65" fill="#22d322"/>
<line x1="123.00" y1="14.16" x2="86.50" y2="14.16" stroke="#22d37a" stroke-width="2.6" stroke-linecap="round"/>
<polygon points="77.00,14.16 88.00,9.56 88.00,18.76" fill="#22d37a"/>
<line x1="77.00" y1="14.16" x2="45.39" y2="32.41" stroke="#22d3d3" stroke-width="2.6" stroke-linecap="round"/>
<polygon points="37.16,37.16 44.39,27.68 48.99,35.65" fill="#22d3d3"/>
<line x1="37.16" y1="37.16" x2="18.91" y2="68.77" stroke="#227ad3" stroke-width="2.6" stroke-linecap="round"/>
<polygon points="14.16,77.00 15.68,65.17 23.65,69.77" fill="#227ad3"/>
<line x1="14.16" y1="77.00" x2="14.16" y2="113.50" stroke="#2222d3" stroke-width="2.6" stroke-linecap="round"/>
<polygon points="14.16,123.00 9.56,112.00 18.76,112.00" fill="#2222d3"/>
<line x1="14.16" y1="123.00" x2="32.41" y2="154.61" stroke="#7a22d3" stroke-width="2.6" stroke-linecap="round"/>
<polygon points="37.16,162.84 27.68,155.61 35.65,151.01" fill="#7a22d3"/>
<line x1="37.16" y1="162.84" x2="68.77" y2="181.09" stroke="#d322d3" stroke-width="2.6" stroke-linecap="round"/>
<polygon points="77.00,185.84 65.17,184.32 69.77,176.35" fill="#d322d3"/>
<line x1="77.00" y1="185.84" x2="113.50" y2="185.84" stroke="#d3227a" stroke-width="2.6" stroke-linecap="round"/>
<polygon points="123.00,185.84 112.00,190.44 112.00,181.24" fill="#d3227a"/>
<circle cx="162.84" cy="162.84" r="1.9" fill="currentColor" opacity="0.55"/>
<circle cx="185.84" cy="123.00" r="1.9" fill="currentColor" opacity="0.55"/>
<circle cx="185.84" cy="77.00" r="1.9" fill="currentColor" opacity="0.55"/>
<circle cx="162.84" cy="37.16" r="1.9" fill="currentColor" opacity="0.55"/>
<circle cx="123.00" cy="14.16" r="1.9" fill="currentColor" opacity="0.55"/>
<circle cx="77.00" cy="14.16" r="1.9" fill="currentColor" opacity="0.55"/>
<circle cx="37.16" cy="37.16" r="1.9" fill="currentColor" opacity="0.55"/>
<circle cx="14.16" cy="77.00" r="1.9" fill="currentColor" opacity="0.55"/>
<circle cx="14.16" cy="123.00" r="1.9" fill="currentColor" opacity="0.55"/>
<circle cx="37.16" cy="162.84" r="1.9" fill="currentColor" opacity="0.55"/>
<circle cx="77.00" cy="185.84" r="1.9" fill="currentColor" opacity="0.55"/>
<circle cx="123.00" cy="185.84" r="1.9" fill="currentColor" opacity="0.55"/>
<circle cx="123.00" cy="185.84" r="4.2" fill="none" stroke="currentColor" stroke-width="1.8"/>
</svg>
