<svg xmlns="http://www.w3.org/2000/svg" width="720" height="720" viewBox="0 0 720 720"><rect width="720" height="720" fill="#ffffff" /><polygon points="310.571,360.000 290.800,394.245 310.571,428.490 330.343,394.245 350.114,428.490 389.657,428.490 369.886,394.245 389.657,360.000 350.114,360.000 330.343,325.755 290.800,325.755 271.029,360.000" fill="#e67e22" stroke="#000000" stroke-width="1.977" stroke-linejoin="round" stroke-linecap="round" /><polygon points="290.800,462.735 310.571,496.980 350.114,496.980 330.343,462.735 369.886,462.735 389.657,428.490 350.114,428.490 330.343,394.245 310.571,428.490 271.029,428.490 251.257,462.735 271.029,496.980" fill="#3478be" stroke="#000000" stroke-width="1.977" stroke-linejoin="round" stroke-linecap="round" /><polygon points="231.486,360.000 211.714,394.245 231.486,428.490 251.257,394.245 271.029,428.490 310.571,428.490 290.800,394.245 310.571,360.000 271.029,360.000 251.257,325.755 211.714,325.755 191.943,360.000" fill="#3478be" stroke="#000000" stroke-width="1.977" stroke-linejoin="round" stroke-linecap="round" /><polygon points="409.429,394.245 448.971,394.245 468.743,360.000 429.200,360.000 448.971,325.755 429.200,291.510 409.429,325.755 369.886,325.755 389.657,360.000 369.886,394.245 389.657,428.490 429.200,428.490" fill="#3478be" stroke="#000000" stroke-width="1.977" stroke-linejoin="round" stroke-linecap="round" /><polygon points="369.886,325.755 409.429,325.755 429.200,291.510 389.657,291.510 409.429,257.265 389.657,223.020 369.886,257.265 330.343,257.265 350.114,291.510 330.343,325.755 350.114,360.000 389.657,360.000" fill="#3478be" stroke="#000000" stroke-width="1.977" stroke-linejoin="round" stroke-linecap="round" /><polygon points="310.571,291.510 290.800,257.265 251.257,257.265 271.029,291.510 231.486,291.510 211.714,325.755 251.257,325.755 271.029,360.000 290.800,325.755 330.343,325.755 350.114,291.510 330.343,257.265" fill="#3478be" stroke="#000000" stroke-width="1.977" stroke-linejoin="round" stroke-linecap="round" /><polygon points="468.743,428.490 448.971,394.245 409.429,394.245 429.200,428.490 389.657,428.490 369.886,462.735 409.429,462.735 429.200,496.980 448.971,462.735 488.514,462.735 508.286,428.490 488.514,394.245" fill="#3478be" stroke="#000000" stroke-width="1.977" stroke-linejoin="round" stroke-linecap="round" /><polygon points="468.743,360.000 448.971,394.245 468.743,428.490 488.514,394.245 508.286,428.490 547.829,428.490 528.057,394.245 547.829,360.000 508.286,360.000 488.514,325.755 448.971,325.755 429.200,360.000" fill="#78afe1" stroke="#000000" stroke-width="1.977" stroke-linejoin="round" stroke-linecap="round" /><polygon points="468.743,291.510 488.514,257.265 468.743,223.020 448.971,257.265 429.200,223.020 389.657,223.020 409.429,257.265 389.657,291.510 429.200,291.510 448.971,325.755 488.514,325.755 508.286,291.510" fill="#78afe1" stroke="#000000" stroke-width="1.977" stroke-linejoin="round" stroke-linecap="round" /><polygon points="350.114,223.020 330.343,188.774 290.800,188.774 310.571,223.020 271.029,223.020 251.257,257.265 290.800,257.265 310.571,291.510 330.343,257.265 369.886,257.265 389.657,223.020 369.886,188.774" fill="#78afe1" stroke="#000000" stroke-width="1.977" stroke-linejoin="round" stroke-linecap="round" /><polygon points="231.486,223.020 191.943,223.020 172.171,257.265 211.714,257.265 191.943,291.510 211.714,325.755 231.486,291.510 271.029,291.510 251.257,257.265 271.029,223.020 251.257,188.774 211.714,188.774" fill="#78afe1" stroke="#000000" stroke-width="1.977" stroke-linejoin="round" stroke-linecap="round" /><polygon points="172.171,394.245 211.714,394.245 231.486,360.000 191.943,360.000 211.714,325.755 191.943,291.510 172.171,325.755 132.629,325.755 152.400,360.000 132.629,394.245 152.400,428.490 191.943,428.490" fill="#78afe1" stroke="#000000" stroke-width="1.977" stroke-linejoin="round" stroke-linecap="round" /><polygon points="231.486,428.490 211.714,394.245 172.171,394.245 191.943,428.490 152.400,428.490 132.629,462.735 172.171,462.735 191.943,496.980 211.714,462.735 251.257,462.735 271.029,428.490 251.257,394.245" fill="#78afe1" stroke="#000000" stroke-width="1.977" stroke-linejoin="round" stroke-linecap="round" /><polygon points="290.800,531.226 310.571,496.980 290.800,462.735 271.029,496.980 251.257,462.735 211.714,462.735 231.486,496.980 211.714,531.226 251.257,531.226 271.029,565.471 310.571,565.471 330.343,531.226" fill="#78afe1" stroke="#000000" stroke-width="1.977" stroke-linejoin="round" stroke-linecap="round" /><polygon points="350.114,496.980 310.571,496.980 290.800,531.226 330.343,531.226 310.571,565.471 330.343,599.716 350.114,565.471 389.657,565.471 369.886,531.226 389.657,496.980 369.886,462.735 330.343,462.735" fill="#78afe1" stroke="#000000" stroke-width="1.977" stroke-linejoin="round" stroke-linecap="round" /><polygon points="448.971,531.226 468.743,496.980 448.971,462.735 429.200,496.980 409.429,462.735 369.886,462.735 389.657,496.980 369.886,531.226 409.429,531.226 429.200,565.471 468.743,565.471 488.514,531.226" fill="#78afe1" stroke="#000000" stroke-width="1.977" stroke-linejoin="round" stroke-linecap="round" /><polygon points="528.057,531.226 547.829,496.980 528.057,462.735 508.286,496.980 488.514,462.735 448.971,462.735 468.743,496.980 448.971,531.226 488.514,531.226 508.286,565.471 547.829,565.471 567.600,531.226" fill="#78afe1" stroke="#000000" stroke-width="1.977" stroke-linejoin="round" stroke-linecap="round" /><polygon points="528.057,462.735 547.829,496.980 587.371,496.980 567.600,462.735 607.143,462.735 626.914,428.490 587.371,428.490 567.600,394.245 547.829,428.490 508.286,428.490 488.514,462.735 508.286,496.980" fill="#78afe1" stroke="#000000" stroke-width="1.977" stroke-linejoin="round" stroke-linecap="round" /><polygon points="350.114,154.529 330.343,188.774 350.114,223.020 369.886,188.774 389.657,223.020 429.200,223.020 409.429,188.774 429.200,154.529 389.657,154.529 369.886,120.284 330.343,120.284 310.571,154.529" fill="#78afe1" stroke="#000000" stroke-width="1.977" stroke-linejoin="round" stroke-linecap="round" /><polygon points="290.800,188.774 330.343,188.774 350.114,154.529 310.571,154.529 330.343,120.284 310.571,86.039 290.800,120.284 251.257,120.284 271.029,154.529 251.257,188.774 271.029,223.020 310.571,223.020" fill="#b0ceec" stroke="#000000" stroke-width="1.977" stroke-linejoin="round" stroke-linecap="round" /><polygon points="172.171,188.774 191.943,223.020 231.486,223.020 211.714,188.774 251.257,188.774 271.029,154.529 231.486,154.529 211.714,120.284 191.943,154.529 152.400,154.529 132.629,188.774 152.400,223.020" fill="#b0ceec" stroke="#000000" stroke-width="1.977" stroke-linejoin="round" stroke-linecap="round" /><polygon points="172.171,257.265 191.943,223.020 172.171,188.774 152.400,223.020 132.629,188.774 93.086,188.774 112.857,223.020 93.086,257.265 132.629,257.265 152.400,291.510 191.943,291.510 211.714,257.265" fill="#b0ceec" stroke="#000000" stroke-width="1.977" stroke-linejoin="round" stroke-linecap="round" /><polygon points="93.086,325.755 112.857,360.000 152.400,360.000 132.629,325.755 172.171,325.755 191.943,291.510 152.400,291.510 132.629,257.265 112.857,291.510 73.314,291.510 53.543,325.755 73.314,360.000" fill="#b0ceec" stroke="#000000" stroke-width="1.977" stroke-linejoin="round" stroke-linecap="round" /><polygon points="53.543,394.245 73.314,428.490 112.857,428.490 93.086,394.245 132.629,394.245 152.400,360.000 112.857,360.000 93.086,325.755 73.314,360.000 33.771,360.000 14.000,394.245 33.771,428.490" fill="#b0ceec" stroke="#000000" stroke-width="1.977" stroke-linejoin="round" stroke-linecap="round" /><polygon points="211.714,531.226 231.486,496.980 211.714,462.735 191.943,496.980 172.171,462.735 132.629,462.735 152.400,496.980 132.629,531.226 172.171,531.226 191.943,565.471 231.486,565.471 251.257,531.226" fill="#b0ceec" stroke="#000000" stroke-width="1.977" stroke-linejoin="round" stroke-linecap="round" /><polygon points="231.486,633.961 271.029,633.961 290.800,599.716 251.257,599.716 271.029,565.471 251.257,531.226 231.486,565.471 191.943,565.471 211.714,599.716 191.943,633.961 211.714,668.206 251.257,668.206" fill="#b0ceec" stroke="#000000" stroke-width="1.977" stroke-linejoin="round" stroke-linecap="round" /><polygon points="389.657,565.471 350.114,565.471 330.343,599.716 369.886,599.716 350.114,633.961 369.886,668.206 389.657,633.961 429.200,633.961 409.429,599.716 429.200,565.471 409.429,531.226 369.886,531.226" fill="#b0ceec" stroke="#000000" stroke-width="1.977" stroke-linejoin="round" stroke-linecap="round" /><polygon points="448.971,599.716 468.743,633.961 508.286,633.961 488.514,599.716 528.057,599.716 547.829,565.471 508.286,565.471 488.514,531.226 468.743,565.471 429.200,565.471 409.429,599.716 429.200,633.961" fill="#b0ceec" stroke="#000000" stroke-width="1.977" stroke-linejoin="round" stroke-linecap="round" /><polygon points="587.371,496.980 547.829,496.980 528.057,531.226 567.600,531.226 547.829,565.471 567.600,599.716 587.371,565.471 626.914,565.471 607.143,531.226 626.914,496.980 607.143,462.735 567.600,462.735" fill="#b0ceec" stroke="#000000" stroke-width="1.977" stroke-linejoin="round" stroke-linecap="round" /><polygon points="547.829,360.000 528.057,394.245 547.829,428.490 567.600,394.245 587.371,428.490 626.914,428.490 607.143,394.245 626.914,360.000 587.371,360.000 567.600,325.755 528.057,325.755 508.286,360.000" fill="#b0ceec" stroke="#000000" stroke-width="1.977" stroke-linejoin="round" stroke-linecap="round" /><polygon points="528.057,257.265 488.514,257.265 468.743,291.510 508.286,291.510 488.514,325.755 508.286,360.000 528.057,325.755 567.600,325.755 547.829,291.510 567.600,257.265 547.829,223.020 508.286,223.020" fill="#b0ceec" stroke="#000000" stroke-width="1.977" stroke-linejoin="round" stroke-linecap="round" /><polygon points="468.743,223.020 488.514,257.265 528.057,257.265 508.286,223.020 547.829,223.020 567.600,188.774 528.057,188.774 508.286,154.529 488.514,188.774 448.971,188.774 429.200,223.020 448.971,257.265" fill="#b0ceec" stroke="#000000" stroke-width="1.977" stroke-linejoin="round" stroke-linecap="round" /><polygon points="448.971,120.284 409.429,120.284 389.657,154.529 429.200,154.529 409.429,188.774 429.200,223.020 448.971,188.774 488.514,188.774 468.743,154.529 488.514,120.284 468.743,86.039 429.200,86.039" fill="#b0ceec" stroke="#000000" stroke-width="1.977" stroke-linejoin="round" stroke-linecap="round" /><polygon points="409.429,51.794 369.886,51.794 350.114,86.039 389.657,86.039 369.886,120.284 389.657,154.529 409.429,120.284 448.971,120.284 429.200,86.039 448.971,51.794 429.200,17.549 389.657,17.549" fill="#b0ceec" stroke="#000000" stroke-width="1.977" stroke-linejoin="round" stroke-linecap="round" /><polygon points="350.114,86.039 369.886,51.794 350.114,17.549 330.343,51.794 310.571,17.549 271.029,17.549 290.800,51.794 271.029,86.039 310.571,86.039 330.343,120.284 369.886,120.284 389.657,86.039" fill="#b0ceec" stroke="#000000" stroke-width="1.977" stroke-linejoin="round" stroke-linecap="round" /><polygon points="112.857,428.490 73.314,428.490 53.543,462.735 93.086,462.735 73.314,496.980 93.086,531.226 112.857,496.980 152.400,496.980 132.629,462.735 152.400,428.490 132.629,394.245 93.086,394.245" fill="#b0ceec" stroke="#000000" stroke-width="1.977" stroke-linejoin="round" stroke-linecap="round" /><polygon points="290.800,599.716 271.029,633.961 290.800,668.206 310.571,633.961 330.343,668.206 369.886,668.206 350.114,633.961 369.886,599.716 330.343,599.716 310.571,565.471 271.029,565.471 251.257,599.716" fill="#b0ceec" stroke="#000000" stroke-width="1.977" stroke-linejoin="round" stroke-linecap="round" /><polygon points="646.686,462.735 686.229,462.735 706.000,428.490 666.457,428.490 686.229,394.245 666.457,360.000 646.686,394.245 607.143,394.245 626.914,428.490 607.143,462.735 626.914,496.980 666.457,496.980" fill="#b0ceec" stroke="#000000" stroke-width="1.977" stroke-linejoin="round" stroke-linecap="round" /><polygon points="528.057,668.206 567.600,668.206 587.371,633.961 547.829,633.961 567.600,599.716 547.829,565.471 528.057,599.716 488.514,599.716 508.286,633.961 488.514,668.206 508.286,702.451 547.829,702.451" fill="#b0ceec" stroke="#000000" stroke-width="1.977" stroke-linejoin="round" stroke-linecap="round" /></svg>