<svg xmlns="http://www.w3.org/2000/svg" width="800" height="800" viewBox="0 0 800 800"><rect width="800" height="800" fill="#ffffff" /><polygon points="12.000,594.000 206.000,594.000 206.000,400.000 12.000,400.000" fill="#4682d2" fill-opacity="0.102" stroke="none" /><polygon points="206.000,788.000 400.000,788.000 400.000,594.000 206.000,594.000" fill="#4682d2" fill-opacity="0.102" stroke="none" /><polygon points="206.000,594.000 400.000,594.000 400.000,400.000 206.000,400.000" fill="#4682d2" fill-opacity="0.314" stroke="none" /><polygon points="206.000,400.000 400.000,400.000 400.000,206.000 206.000,206.000" fill="#4682d2" fill-opacity="0.102" stroke="none" /><polygon points="400.000,594.000 594.000,594.000 594.000,400.000 400.000,400.000" fill="#4682d2" fill-opacity="0.102" stroke="none" /><polygon points="400.000,400.000 594.000,400.000 594.000,206.000 400.000,206.000" fill="#4682d2" fill-opacity="0.314" stroke="none" /><polygon points="400.000,206.000 594.000,206.000 594.000,12.000 400.000,12.000" fill="#4682d2" fill-opacity="0.102" stroke="none" /><polygon points="594.000,400.000 788.000,400.000 788.000,206.000 594.000,206.000" fill="#4682d2" fill-opacity="0.102" stroke="none" /><line x1="12.000" y1="788.000" x2="12.000" y2="12.000" stroke="#b0b0b0" stroke-width="2.328" stroke-linejoin="round" stroke-linecap="round" /><line x1="206.000" y1="788.000" x2="206.000" y2="12.000" stroke="#b0b0b0" stroke-width="2.328" stroke-linejoin="round" stroke-linecap="round" /><line x1="400.000" y1="788.000" x2="400.000" y2="12.000" stroke="#b0b0b0" stroke-width="2.328" stroke-linejoin="round" stroke-linecap="round" /><line x1="594.000" y1="788.000" x2="594.000" y2="12.000" stroke="#b0b0b0" stroke-width="2.328" stroke-linejoin="round" stroke-linecap="round" /><line x1="788.000" y1="788.000" x2="788.000" y2="12.000" stroke="#b0b0b0" stroke-width="2.328" stroke-linejoin="round" stroke-linecap="round" /><line x1="12.000" y1="788.000" x2="788.000" y2="788.000" stroke="#b0b0b0" stroke-width="2.328" stroke-linejoin="round" stroke-linecap="round" /><line x1="12.000" y1="594.000" x2="788.000" y2="594.000" stroke="#b0b0b0" stroke-width="2.328" stroke-linejoin="round" stroke-linecap="round" /><line x1="12.000" y1="400.000" x2="788.000" y2="400.000" stroke="#b0b0b0" stroke-width="2.328" stroke-linejoin="round" stroke-linecap="round" /><line x1="12.000" y1="206.000" x2="788.000" y2="206.000" stroke="#b0b0b0" stroke-width="2.328" stroke-linejoin="round" stroke-linecap="round" /><line x1="12.000" y1="12.000" x2="788.000" y2="12.000" stroke="#b0b0b0" stroke-width="2.328" stroke-linejoin="round" stroke-linecap="round" /><line x1="314.737" y1="415.539" x2="471.686" y2="529.570" stroke="#7d7d7d" stroke-width="4.268" stroke-linejoin="round" stroke-linecap="round" /><line x1="413.580" y1="427.160" x2="607.580" y2="427.160" stroke="#7d7d7d" stroke-width="4.268" stroke-linejoin="round" stroke-linecap="round" /><line x1="89.600" y1="487.300" x2="248.515" y2="376.026" stroke="#7d7d7d" stroke-width="4.268" stroke-linejoin="round" stroke-linecap="round" /><line x1="303.000" y1="729.800" x2="269.312" y2="538.747" stroke="#7d7d7d" stroke-width="4.268" stroke-linejoin="round" stroke-linecap="round" /><line x1="671.600" y1="341.800" x2="503.591" y2="244.800" stroke="#7d7d7d" stroke-width="4.268" stroke-linejoin="round" stroke-linecap="round" /><line x1="497.000" y1="147.800" x2="688.053" y2="181.488" stroke="#7d7d7d" stroke-width="4.268" stroke-linejoin="round" stroke-linecap="round" /><line x1="429.100" y1="691.000" x2="623.100" y2="691.000" stroke="#7d7d7d" stroke-width="4.268" stroke-linejoin="round" stroke-linecap="round" /><line x1="109.000" y1="361.200" x2="109.000" y2="167.200" stroke="#7d7d7d" stroke-width="4.268" stroke-linejoin="round" stroke-linecap="round" /><line x1="31.400" y1="768.600" x2="168.579" y2="631.421" stroke="#7d7d7d" stroke-width="4.268" stroke-linejoin="round" stroke-linecap="round" /><line x1="758.900" y1="176.900" x2="621.721" y2="39.721" stroke="#7d7d7d" stroke-width="4.268" stroke-linejoin="round" stroke-linecap="round" /><line x1="235.100" y1="176.900" x2="359.801" y2="28.287" stroke="#7d7d7d" stroke-width="4.268" stroke-linejoin="round" stroke-linecap="round" /><line x1="361.200" y1="516.400" x2="475.230" y2="359.451" stroke="#cd232d" stroke-width="8.730" stroke-linejoin="round" stroke-linecap="round" /><circle cx="607.580" cy="427.160" r="4.850" fill="#9b9b9b" stroke="none" /><circle cx="688.053" cy="181.488" r="4.850" fill="#9b9b9b" stroke="none" /><circle cx="429.100" cy="691.000" r="4.850" fill="#9b9b9b" stroke="none" /><circle cx="623.100" cy="691.000" r="4.850" fill="#9b9b9b" stroke="none" /><circle cx="109.000" cy="361.200" r="4.850" fill="#9b9b9b" stroke="none" /><circle cx="109.000" cy="167.200" r="4.850" fill="#9b9b9b" stroke="none" /><circle cx="31.400" cy="768.600" r="4.850" fill="#9b9b9b" stroke="none" /><circle cx="168.579" cy="631.421" r="4.850" fill="#9b9b9b" stroke="none" /><circle cx="758.900" cy="176.900" r="4.850" fill="#9b9b9b" stroke="none" /><circle cx="621.721" cy="39.721" r="4.850" fill="#9b9b9b" stroke="none" /><circle cx="235.100" cy="176.900" r="4.850" fill="#9b9b9b" stroke="none" /><circle cx="359.801" cy="28.287" r="4.850" fill="#9b9b9b" stroke="none" /><circle cx="314.737" cy="415.539" r="8.730" fill="#f09619" stroke="#3c2800" stroke-width="2.716" stroke-linejoin="round" stroke-linecap="round" /><circle cx="471.686" cy="529.570" r="8.730" fill="#f09619" stroke="#3c2800" stroke-width="2.716" stroke-linejoin="round" stroke-linecap="round" /><circle cx="413.580" cy="427.160" r="8.730" fill="#f09619" stroke="#3c2800" stroke-width="2.716" stroke-linejoin="round" stroke-linecap="round" /><circle cx="89.600" cy="487.300" r="8.730" fill="#f09619" stroke="#3c2800" stroke-width="2.716" stroke-linejoin="round" stroke-linecap="round" /><circle cx="248.515" cy="376.026" r="8.730" fill="#f09619" stroke="#3c2800" stroke-width="2.716" stroke-linejoin="round" stroke-linecap="round" /><circle cx="303.000" cy="729.800" r="8.730" fill="#f09619" stroke="#3c2800" stroke-width="2.716" stroke-linejoin="round" stroke-linecap="round" /><circle cx="269.312" cy="538.747" r="8.730" fill="#f09619" stroke="#3c2800" stroke-width="2.716" stroke-linejoin="round" stroke-linecap="round" /><circle cx="671.600" cy="341.800" r="8.730" fill="#f09619" stroke="#3c2800" stroke-width="2.716" stroke-linejoin="round" stroke-linecap="round" /><circle cx="503.591" cy="244.800" r="8.730" fill="#f09619" stroke="#3c2800" stroke-width="2.716" stroke-linejoin="round" stroke-linecap="round" /><circle cx="497.000" cy="147.800" r="8.730" fill="#f09619" stroke="#3c2800" stroke-width="2.716" stroke-linejoin="round" stroke-linecap="round" /><circle cx="361.200" cy="516.400" r="7.275" fill="#282828" stroke="none" /><circle cx="475.230" cy="359.451" r="7.275" fill="#282828" stroke="none" /></svg>