<svg xmlns="http://www.w3.org/2000/svg" width="400" height="400" viewBox="0 0 400 400"><rect width="400" height="400" fill="#ffffff" /><polygon points="366.957,287.774 345.170,220.721 323.382,153.667 252.878,153.667 309.917,112.226 288.130,45.172 217.626,45.172 160.587,86.614 103.548,45.172 33.043,45.172 54.830,112.226 33.043,179.279 90.083,220.721 111.870,287.774 182.374,287.774 204.161,354.828 225.948,287.774 296.452,287.774" fill="#ffdc00" fill-opacity="0.376" stroke="#000000" stroke-width="3.456" stroke-linejoin="round" stroke-linecap="round" /><polygon points="353.986,247.856 353.666,262.092 362.613,259.185" fill="#000000" stroke="none" /><polygon points="332.199,180.803 331.879,195.039 340.826,192.131" fill="#000000" stroke="none" /><polygon points="281.410,153.667 294.850,158.371 294.850,148.963" fill="#000000" stroke="none" /><polygon points="286.834,128.997 273.196,133.091 278.726,140.702" fill="#000000" stroke="none" /><polygon points="296.947,72.308 296.627,86.544 305.574,83.636" fill="#000000" stroke="none" /><polygon points="246.158,45.172 259.598,49.876 259.598,40.468" fill="#000000" stroke="none" /><polygon points="183.670,69.843 197.308,65.749 191.778,58.137" fill="#000000" stroke="none" /><polygon points="126.631,61.943 134.739,73.648 140.269,66.037" fill="#000000" stroke="none" /><polygon points="61.576,45.172 75.016,49.876 75.016,40.468" fill="#000000" stroke="none" /><polygon points="46.014,85.090 46.334,70.854 37.387,73.762" fill="#000000" stroke="none" /><polygon points="41.860,152.144 50.487,140.815 41.540,137.908" fill="#000000" stroke="none" /><polygon points="67.000,203.950 58.891,192.244 53.362,199.856" fill="#000000" stroke="none" /><polygon points="103.053,260.639 103.373,246.403 94.426,249.310" fill="#000000" stroke="none" /><polygon points="153.842,287.774 140.402,283.070 140.402,292.478" fill="#000000" stroke="none" /><polygon points="195.344,327.692 195.665,313.456 186.717,316.364" fill="#000000" stroke="none" /><polygon points="217.131,314.910 208.504,326.238 217.452,329.146" fill="#000000" stroke="none" /><polygon points="267.920,287.774 254.480,283.070 254.480,292.478" fill="#000000" stroke="none" /><polygon points="338.424,287.774 324.984,283.070 324.984,292.478" fill="#000000" stroke="none" /><circle cx="366.957" cy="287.774" r="4.800" fill="#0000ff" stroke="none" /><circle cx="345.170" cy="220.721" r="4.800" fill="#0000ff" stroke="none" /><circle cx="323.382" cy="153.667" r="4.800" fill="#0000ff" stroke="none" /><circle cx="252.878" cy="153.667" r="4.800" fill="#0000ff" stroke="none" /><circle cx="309.917" cy="112.226" r="4.800" fill="#0000ff" stroke="none" /><circle cx="288.130" cy="45.172" r="4.800" fill="#0000ff" stroke="none" /><circle cx="217.626" cy="45.172" r="4.800" fill="#0000ff" stroke="none" /><circle cx="160.587" cy="86.614" r="4.800" fill="#0000ff" stroke="none" /><circle cx="103.548" cy="45.172" r="4.800" fill="#0000ff" stroke="none" /><circle cx="33.043" cy="45.172" r="4.800" fill="#0000ff" stroke="none" /><circle cx="54.830" cy="112.226" r="4.800" fill="#0000ff" stroke="none" /><circle cx="33.043" cy="179.279" r="4.800" fill="#0000ff" stroke="none" /><circle cx="90.083" cy="220.721" r="4.800" fill="#0000ff" stroke="none" /><circle cx="111.870" cy="287.774" r="4.800" fill="#0000ff" stroke="none" /><circle cx="182.374" cy="287.774" r="4.800" fill="#0000ff" stroke="none" /><circle cx="204.161" cy="354.828" r="4.800" fill="#0000ff" stroke="none" /><circle cx="225.948" cy="287.774" r="4.800" fill="#0000ff" stroke="none" /><circle cx="296.452" cy="287.774" r="4.800" fill="#0000ff" stroke="none" /><circle cx="366.957" cy="287.774" r="6.720" fill="#ff0000" stroke="none" /></svg>