<svg xmlns="http://www.w3.org/2000/svg" width="400" height="400" viewBox="0 0 400 400"><rect width="400" height="400" fill="#ffffff" /><polygon points="366.957,244.981 325.683,214.994 274.665,214.994 258.900,166.473 217.626,136.486 166.609,136.486 125.335,106.499 84.061,136.486 33.043,136.486 74.317,166.473 115.591,196.460 156.865,166.473 141.100,214.994 182.374,244.981 233.391,244.981 249.157,293.501 264.922,244.981 315.939,244.981" fill="#ffdc00" fill-opacity="0.376" stroke="#000000" stroke-width="3.456" stroke-linejoin="round" stroke-linecap="round" /><polygon points="340.883,226.037 348.991,237.743 354.521,230.132" fill="#000000" stroke="none" /><polygon points="293.454,214.994 306.894,219.698 306.894,210.290" fill="#000000" stroke="none" /><polygon points="264.706,184.342 264.385,198.578 273.333,195.671" fill="#000000" stroke="none" /><polygon points="232.826,147.530 240.935,159.235 246.465,151.624" fill="#000000" stroke="none" /><polygon points="185.397,136.486 198.837,141.190 198.837,131.782" fill="#000000" stroke="none" /><polygon points="140.535,117.542 148.643,129.248 154.173,121.637" fill="#000000" stroke="none" /><polygon points="99.261,125.442 112.899,121.348 107.369,113.737" fill="#000000" stroke="none" /><polygon points="51.832,136.486 65.272,141.190 65.272,131.782" fill="#000000" stroke="none" /><polygon points="59.117,155.430 51.009,143.724 45.479,151.335" fill="#000000" stroke="none" /><polygon points="100.391,185.417 92.283,173.711 86.753,181.323" fill="#000000" stroke="none" /><polygon points="141.665,177.517 128.027,181.611 133.557,189.222" fill="#000000" stroke="none" /><polygon points="146.906,197.125 155.533,185.796 146.585,182.889" fill="#000000" stroke="none" /><polygon points="167.174,233.937 159.065,222.232 153.535,229.843" fill="#000000" stroke="none" /><polygon points="214.603,244.981 201.163,240.277 201.163,249.685" fill="#000000" stroke="none" /><polygon points="243.351,275.632 243.671,261.396 234.724,264.304" fill="#000000" stroke="none" /><polygon points="259.116,262.850 250.489,274.179 259.436,277.086" fill="#000000" stroke="none" /><polygon points="297.150,244.981 283.710,240.277 283.710,249.685" fill="#000000" stroke="none" /><polygon points="348.168,244.981 334.728,240.277 334.728,249.685" fill="#000000" stroke="none" /><circle cx="366.957" cy="244.981" r="4.800" fill="#0000ff" stroke="none" /><circle cx="325.683" cy="214.994" r="4.800" fill="#0000ff" stroke="none" /><circle cx="274.665" cy="214.994" r="4.800" fill="#0000ff" stroke="none" /><circle cx="258.900" cy="166.473" r="4.800" fill="#0000ff" stroke="none" /><circle cx="217.626" cy="136.486" r="4.800" fill="#0000ff" stroke="none" /><circle cx="166.609" cy="136.486" r="4.800" fill="#0000ff" stroke="none" /><circle cx="125.335" cy="106.499" r="4.800" fill="#0000ff" stroke="none" /><circle cx="84.061" cy="136.486" r="4.800" fill="#0000ff" stroke="none" /><circle cx="33.043" cy="136.486" r="4.800" fill="#0000ff" stroke="none" /><circle cx="74.317" cy="166.473" r="4.800" fill="#0000ff" stroke="none" /><circle cx="115.591" cy="196.460" r="4.800" fill="#0000ff" stroke="none" /><circle cx="156.865" cy="166.473" r="4.800" fill="#0000ff" stroke="none" /><circle cx="141.100" cy="214.994" r="4.800" fill="#0000ff" stroke="none" /><circle cx="182.374" cy="244.981" r="4.800" fill="#0000ff" stroke="none" /><circle cx="233.391" cy="244.981" r="4.800" fill="#0000ff" stroke="none" /><circle cx="249.157" cy="293.501" r="4.800" fill="#0000ff" stroke="none" /><circle cx="264.922" cy="244.981" r="4.800" fill="#0000ff" stroke="none" /><circle cx="315.939" cy="244.981" r="4.800" fill="#0000ff" stroke="none" /><circle cx="366.957" cy="244.981" r="6.720" fill="#ff0000" stroke="none" /></svg>