<svg xmlns="http://www.w3.org/2000/svg" width="400" height="400" viewBox="0 0 400 400"><rect width="400" height="400" fill="#ffffff" /><polyline points="205.786,264.778 292.157,264.778 366.957,221.593 280.585,221.593 280.585,135.222 194.214,135.222 107.843,135.222 107.843,221.593 33.043,264.778" fill="none" stroke="#000000" stroke-width="3.456" stroke-linejoin="round" stroke-linecap="round" /><polygon points="255.691,264.778 242.251,258.730 242.251,270.826" fill="#000000" stroke="none" /><polygon points="335.376,239.826 320.713,241.308 326.761,251.783" fill="#000000" stroke="none" /><polygon points="317.051,221.593 330.491,227.641 330.491,215.545" fill="#000000" stroke="none" /><polygon points="280.585,171.687 274.537,185.127 286.633,185.127" fill="#000000" stroke="none" /><polygon points="230.680,135.222 244.120,141.270 244.120,129.174" fill="#000000" stroke="none" /><polygon points="144.309,135.222 157.749,141.270 157.749,129.174" fill="#000000" stroke="none" /><polygon points="107.843,185.127 113.891,171.687 101.795,171.687" fill="#000000" stroke="none" /><polygon points="64.624,246.546 79.287,245.063 73.239,234.588" fill="#000000" stroke="none" /><circle cx="205.786" cy="264.778" r="4.800" fill="#0000ff" stroke="none" /><circle cx="292.157" cy="264.778" r="4.800" fill="#0000ff" stroke="none" /><circle cx="366.957" cy="221.593" r="4.800" fill="#0000ff" stroke="none" /><circle cx="280.585" cy="221.593" r="4.800" fill="#0000ff" stroke="none" /><circle cx="280.585" cy="135.222" r="4.800" fill="#0000ff" stroke="none" /><circle cx="194.214" cy="135.222" r="4.800" fill="#0000ff" stroke="none" /><circle cx="107.843" cy="135.222" r="4.800" fill="#0000ff" stroke="none" /><circle cx="107.843" cy="221.593" r="4.800" fill="#0000ff" stroke="none" /><circle cx="33.043" cy="264.778" r="4.800" fill="#0000ff" stroke="none" /><circle cx="205.786" cy="264.778" r="6.720" fill="#ff0000" stroke="none" /><circle cx="33.043" cy="264.778" r="6.720" fill="#00c800" stroke="none" /><circle cx="205.786" cy="264.778" r="9.600" fill="#ff0000" stroke="none" /><text x="205.786" y="264.778" font-family="sans-serif" font-size="15.360" font-weight="bold" font-style="normal" text-anchor="middle" dominant-baseline="central" fill="#ffffff">0</text><circle cx="292.157" cy="264.778" r="9.600" fill="#0000ff" stroke="none" /><text x="292.157" y="264.778" font-family="sans-serif" font-size="15.360" font-weight="bold" font-style="normal" text-anchor="middle" dominant-baseline="central" fill="#ffffff">1</text><circle cx="366.957" cy="221.593" r="9.600" fill="#0000ff" stroke="none" /><text x="366.957" y="221.593" font-family="sans-serif" font-size="15.360" font-weight="bold" font-style="normal" text-anchor="middle" dominant-baseline="central" fill="#ffffff">5</text><circle cx="280.585" cy="221.593" r="9.600" fill="#0000ff" stroke="none" /><text x="280.585" y="221.593" font-family="sans-serif" font-size="15.360" font-weight="bold" font-style="normal" text-anchor="middle" dominant-baseline="central" fill="#ffffff">-3</text><circle cx="280.585" cy="135.222" r="9.600" fill="#0000ff" stroke="none" /><text x="280.585" y="135.222" font-family="sans-serif" font-size="15.360" font-weight="bold" font-style="normal" text-anchor="middle" dominant-baseline="central" fill="#ffffff">3</text><circle cx="194.214" cy="135.222" r="9.600" fill="#0000ff" stroke="none" /><text x="194.214" y="135.222" font-family="sans-serif" font-size="15.360" font-weight="bold" font-style="normal" text-anchor="middle" dominant-baseline="central" fill="#ffffff">0</text><circle cx="107.843" cy="135.222" r="9.600" fill="#0000ff" stroke="none" /><text x="107.843" y="135.222" font-family="sans-serif" font-size="15.360" font-weight="bold" font-style="normal" text-anchor="middle" dominant-baseline="central" fill="#ffffff">3</text><circle cx="107.843" cy="221.593" r="9.600" fill="#0000ff" stroke="none" /><text x="107.843" y="221.593" font-family="sans-serif" font-size="15.360" font-weight="bold" font-style="normal" text-anchor="middle" dominant-baseline="central" fill="#ffffff">-2</text></svg>