<svg xmlns="http://www.w3.org/2000/svg" width="400" height="400" viewBox="0 0 400 400"><rect width="400" height="400" fill="#ffffff" /><polygon points="200.000,255.652 200.000,366.957 311.304,366.957 311.304,255.652 311.304,144.348 200.000,144.348 200.000,33.043 88.696,33.043 88.696,144.348 88.696,255.652" fill="#ffdc00" fill-opacity="0.376" stroke="#000000" stroke-width="3.456" stroke-linejoin="round" stroke-linecap="round" /><polygon points="200.000,318.024 204.704,304.584 195.296,304.584" fill="#000000" stroke="none" /><polygon points="262.372,366.957 248.932,362.253 248.932,371.661" fill="#000000" stroke="none" /><polygon points="311.304,304.584 306.600,318.024 316.008,318.024" fill="#000000" stroke="none" /><polygon points="311.304,193.280 306.600,206.720 316.008,206.720" fill="#000000" stroke="none" /><polygon points="248.932,144.348 262.372,149.052 262.372,139.644" fill="#000000" stroke="none" /><polygon points="200.000,81.976 195.296,95.416 204.704,95.416" fill="#000000" stroke="none" /><polygon points="137.628,33.043 151.068,37.747 151.068,28.339" fill="#000000" stroke="none" /><polygon points="88.696,95.416 93.400,81.976 83.992,81.976" fill="#000000" stroke="none" /><polygon points="88.696,206.720 93.400,193.280 83.992,193.280" fill="#000000" stroke="none" /><polygon points="151.068,255.652 137.628,250.948 137.628,260.356" fill="#000000" stroke="none" /><circle cx="200.000" cy="255.652" r="4.800" fill="#0000ff" stroke="none" /><circle cx="200.000" cy="366.957" r="4.800" fill="#0000ff" stroke="none" /><circle cx="311.304" cy="366.957" r="4.800" fill="#0000ff" stroke="none" /><circle cx="311.304" cy="255.652" r="4.800" fill="#0000ff" stroke="none" /><circle cx="311.304" cy="144.348" r="4.800" fill="#0000ff" stroke="none" /><circle cx="200.000" cy="144.348" r="4.800" fill="#0000ff" stroke="none" /><circle cx="200.000" cy="33.043" r="4.800" fill="#0000ff" stroke="none" /><circle cx="88.696" cy="33.043" r="4.800" fill="#0000ff" stroke="none" /><circle cx="88.696" cy="144.348" r="4.800" fill="#0000ff" stroke="none" /><circle cx="88.696" cy="255.652" r="4.800" fill="#0000ff" stroke="none" /><circle cx="200.000" cy="255.652" r="6.720" fill="#ff0000" stroke="none" /></svg>