<svg xmlns="http://www.w3.org/2000/svg" width="400" height="400" viewBox="0 0 400 400"><rect width="400" height="400" fill="#ffffff" /><polygon points="366.957,200.000 366.957,88.696 255.652,88.696 144.348,88.696 33.043,88.696 33.043,200.000 144.348,200.000 144.348,311.304 255.652,311.304 255.652,200.000" fill="#ffdc00" fill-opacity="0.376" stroke="#000000" stroke-width="3.456" stroke-linejoin="round" stroke-linecap="round" /><polygon points="366.957,137.628 362.253,151.068 371.661,151.068" fill="#000000" stroke="none" /><polygon points="304.584,88.696 318.024,93.400 318.024,83.992" fill="#000000" stroke="none" /><polygon points="193.280,88.696 206.720,93.400 206.720,83.992" fill="#000000" stroke="none" /><polygon points="81.976,88.696 95.416,93.400 95.416,83.992" fill="#000000" stroke="none" /><polygon points="33.043,151.068 37.747,137.628 28.339,137.628" fill="#000000" stroke="none" /><polygon points="95.416,200.000 81.976,195.296 81.976,204.704" fill="#000000" stroke="none" /><polygon points="144.348,262.372 149.052,248.932 139.644,248.932" fill="#000000" stroke="none" /><polygon points="206.720,311.304 193.280,306.600 193.280,316.008" fill="#000000" stroke="none" /><polygon points="255.652,248.932 250.948,262.372 260.356,262.372" fill="#000000" stroke="none" /><polygon points="318.024,200.000 304.584,195.296 304.584,204.704" fill="#000000" stroke="none" /><circle cx="366.957" cy="200.000" r="4.800" fill="#0000ff" stroke="none" /><circle cx="366.957" cy="88.696" r="4.800" fill="#0000ff" stroke="none" /><circle cx="255.652" cy="88.696" r="4.800" fill="#0000ff" stroke="none" /><circle cx="144.348" cy="88.696" r="4.800" fill="#0000ff" stroke="none" /><circle cx="33.043" cy="88.696" r="4.800" fill="#0000ff" stroke="none" /><circle cx="33.043" cy="200.000" r="4.800" fill="#0000ff" stroke="none" /><circle cx="144.348" cy="200.000" r="4.800" fill="#0000ff" stroke="none" /><circle cx="144.348" cy="311.304" r="4.800" fill="#0000ff" stroke="none" /><circle cx="255.652" cy="311.304" r="4.800" fill="#0000ff" stroke="none" /><circle cx="255.652" cy="200.000" r="4.800" fill="#0000ff" stroke="none" /><circle cx="366.957" cy="200.000" r="6.720" fill="#ff0000" stroke="none" /></svg>